<svg width="800" height="480" viewBox="0 0 800 480" fill="none" xmlns="http://www.w3.org/2000/svg">
  <defs>
    <linearGradient id="ec1" x1="0" y1="0" x2="800" y2="480" gradientUnits="userSpaceOnUse">
      <stop stop-color="#f4f1ec"/><stop offset="1" stop-color="#e3ddd2"/>
    </linearGradient>
  </defs>
  <rect width="800" height="480" rx="20" fill="url(#ec1)"/>
  <!-- chrome -->
  <rect x="0" y="0" width="800" height="44" rx="20" fill="#fff" fill-opacity="0.7"/>
  <circle cx="28" cy="22" r="5" fill="#ff5f57"/><circle cx="48" cy="22" r="5" fill="#febc2e"/><circle cx="68" cy="22" r="5" fill="#28c840"/>
  <!-- nav -->
  <text x="40" y="86" font-family="Georgia, serif" font-size="22" fill="#2a261f" letter-spacing="3">VELOUR</text>
  <circle cx="742" cy="78" r="15" fill="#2a261f"/>
  <text x="742" y="83" text-anchor="middle" font-family="Inter" font-size="12" fill="#fff">2</text>
  <text x="640" y="83" font-family="Inter" font-size="12" fill="#6b6357">Panier</text>
  <!-- title -->
  <text x="40" y="150" font-family="'Outfit', Inter, sans-serif" font-size="30" font-weight="600" fill="#2a261f" letter-spacing="-1">Nouvelle collection</text>
  <!-- product cards -->
  <g>
    <rect x="40" y="180" width="220" height="240" rx="14" fill="#fff"/>
    <rect x="60" y="200" width="180" height="150" rx="8" fill="#d9cfbf"/>
    <text x="60" y="380" font-family="Inter" font-size="14" fill="#2a261f" font-weight="600">Manteau laine</text>
    <text x="60" y="402" font-family="Inter" font-size="13" fill="#7a7264">189 €</text>
    <circle cx="232" cy="392" r="16" fill="#2a261f"/><text x="232" y="398" text-anchor="middle" font-size="18" fill="#fff">+</text>
  </g>
  <g>
    <rect x="290" y="180" width="220" height="240" rx="14" fill="#fff"/>
    <rect x="310" y="200" width="180" height="150" rx="8" fill="#cfc3b0"/>
    <text x="310" y="380" font-family="Inter" font-size="14" fill="#2a261f" font-weight="600">Écharpe alpaga</text>
    <text x="310" y="402" font-family="Inter" font-size="13" fill="#7a7264">72 €</text>
    <circle cx="482" cy="392" r="16" fill="#2a261f"/><text x="482" y="398" text-anchor="middle" font-size="18" fill="#fff">+</text>
  </g>
  <g>
    <rect x="540" y="180" width="220" height="240" rx="14" fill="#fff"/>
    <rect x="560" y="200" width="180" height="150" rx="8" fill="#ddd2c0"/>
    <text x="560" y="380" font-family="Inter" font-size="14" fill="#2a261f" font-weight="600">Sac cuir</text>
    <text x="560" y="402" font-family="Inter" font-size="13" fill="#7a7264">240 €</text>
    <circle cx="732" cy="392" r="16" fill="#2a261f"/><text x="732" y="398" text-anchor="middle" font-size="18" fill="#fff">+</text>
  </g>
</svg>
