<svg width="800" height="480" viewBox="0 0 800 480" fill="none" xmlns="http://www.w3.org/2000/svg">
  <defs>
    <linearGradient id="seoArea" x1="0" y1="120" x2="0" y2="380" gradientUnits="userSpaceOnUse">
      <stop stop-color="#2563EB" stop-opacity="0.35"/><stop offset="1" stop-color="#2563EB" stop-opacity="0"/>
    </linearGradient>
  </defs>
  <rect width="800" height="480" rx="20" fill="#0d1017"/>
  <rect x="0" y="0" width="800" height="44" rx="20" fill="#fff" fill-opacity="0.04"/>
  <circle cx="28" cy="22" r="5" fill="#ff5f57"/><circle cx="48" cy="22" r="5" fill="#febc2e"/><circle cx="68" cy="22" r="5" fill="#28c840"/>
  <text x="40" y="86" font-family="'Outfit', Inter, sans-serif" font-size="20" font-weight="600" fill="#fff">Trafic organique</text>
  <text x="40" y="110" font-family="Inter" font-size="13" fill="#7a8595">6 derniers mois</text>
  <!-- KPIs -->
  <text x="600" y="80" font-family="'Outfit', Inter, sans-serif" font-size="30" font-weight="700" fill="#fff">+184%</text>
  <text x="600" y="102" font-family="Inter" font-size="12" fill="#3fae6b">visiteurs vs. départ</text>
  <!-- grid lines -->
  <g stroke="#ffffff" stroke-opacity="0.06">
    <line x1="40" y1="180" x2="760" y2="180"/><line x1="40" y1="250" x2="760" y2="250"/>
    <line x1="40" y1="320" x2="760" y2="320"/><line x1="40" y1="390" x2="760" y2="390"/>
  </g>
  <!-- area + line: rising -->
  <path d="M60 360 L180 330 L300 300 L420 240 L540 190 L660 150 L740 120 L740 390 L60 390 Z" fill="url(#seoArea)"/>
  <path d="M60 360 L180 330 L300 300 L420 240 L540 190 L660 150 L740 120" stroke="#2563EB" stroke-width="3" fill="none" stroke-linecap="round" stroke-linejoin="round"/>
  <g fill="#7C3AED">
    <circle cx="180" cy="330" r="4"/><circle cx="300" cy="300" r="4"/><circle cx="420" cy="240" r="4"/>
    <circle cx="540" cy="190" r="4"/><circle cx="660" cy="150" r="4"/><circle cx="740" cy="120" r="5"/>
  </g>
  <g fill="#5f6b7a" font-family="Inter" font-size="11">
    <text x="56" y="418">Jan</text><text x="176" y="418">Fév</text><text x="296" y="418">Mar</text>
    <text x="416" y="418">Avr</text><text x="536" y="418">Mai</text><text x="716" y="418">Juin</text>
  </g>
</svg>
