<?xml version="1.0" encoding="utf-8"?>
<svg xmlns="http://www.w3.org/2000/svg" xmlns:xlink="http://www.w3.org/1999/xlink" width="552" height="298.922" viewBox="0 0 552 298.922">
  <defs>
    <linearGradient id="linear-gradient" x1="0.5" y1="1" x2="0.5" gradientUnits="objectBoundingBox">
      <stop offset="0" stop-color="gray" stop-opacity="0.251"/>
      <stop offset="0.535" stop-color="gray" stop-opacity="0.122"/>
      <stop offset="1" stop-color="gray" stop-opacity="0.102"/>
    </linearGradient>
  </defs>
  <g id="franchise_ux" transform="translate(0 -77.246)">
    <path id="Tracé_10064" data-name="Tracé 10064" d="M242.986,633.882C239.017,649,225.11,658.441,225.11,658.441s-7.472-15.059-3.5-30.173,17.876-24.559,17.876-24.559S246.954,618.768,242.986,633.882Z" transform="translate(-160.119 -328.284)" fill="#3f3d56"/>
    <path id="Tracé_10065" data-name="Tracé 10065" d="M240.128,642.047c-11.116,10.982-12.36,27.747-12.36,27.747s16.779-1.041,27.895-12.023,12.36-27.747,12.36-27.747S251.244,631.065,240.128,642.047Z" transform="translate(-163.281 -339.646)" fill="#542be2"/>
    <rect id="Rectangle_2302" data-name="Rectangle 2302" width="60.753" height="25.852" rx="12.926" transform="translate(38.67 325.732)" fill="#542be2"/>
    <g id="Groupe_3236" data-name="Groupe 3236" transform="translate(462.268 299.903)" opacity="0.7">
      <path id="Tracé_10066" data-name="Tracé 10066" d="M974.38,656.1v-9.315H927.8v43.084a9.083,9.083,0,0,0,9.083,9.083H965.3a9.083,9.083,0,0,0,9.083-9.083V680.32a12.11,12.11,0,0,0,0-24.22Zm0,19.562v-14.9a7.452,7.452,0,0,1,0,14.9Z" transform="translate(-927.805 -646.785)" fill="url(#linear-gradient)"/>
    </g>
    <path id="Tracé_10067" data-name="Tracé 10067" d="M998.738,665.744A11.057,11.057,0,1,0,1009.8,676.8a11.057,11.057,0,0,0-11.057-11.057Zm0,17.861a6.8,6.8,0,1,1,6.8-6.8,6.8,6.8,0,0,1-6.8,6.8Z" transform="translate(-491.39 -355.068)" fill="#542be2"/>
    <path id="Tracé_10068" data-name="Tracé 10068" d="M998.738,665.744A11.057,11.057,0,1,0,1009.8,676.8a11.057,11.057,0,0,0-11.057-11.057Zm0,17.861a6.8,6.8,0,1,1,6.8-6.8,6.8,6.8,0,0,1-6.8,6.8Z" transform="translate(-491.39 -355.068)" opacity="0.1"/>
    <path id="Tracé_10069" data-name="Tracé 10069" d="M818.016,531.776h42.527v42.09a5.54,5.54,0,0,1-5.54,5.54H823.556a5.54,5.54,0,0,1-5.54-5.54Z" transform="translate(-353.196 -229.606)" fill="#542be2"/>
    <rect id="Rectangle_2303" data-name="Rectangle 2303" width="552" height="18.712" transform="translate(0 349.8)" fill="#e0e0e0"/>
    <g id="Groupe_3237" data-name="Groupe 3237" transform="translate(198.377 77.245)" opacity="0.7">
      <path id="Tracé_10070" data-name="Tracé 10070" d="M570.152,294c-4.61-16.732-30.744-28.951-50.407-31.66,0-.123.009-.246.009-.37V247.65l.063-.022v-.543a49.118,49.118,0,0,0,29.669-31.1,53.062,53.062,0,0,0,3.166-6.825c2.1-.764,3.685-4.226,3.685-8.385a14.642,14.642,0,0,0-.592-4.2,53.809,53.809,0,0,0,.394-6.384,53.209,53.209,0,0,0-17.576-39.574,10.383,10.383,0,0,0,.166-2.6c-.445-6.875-7.788-11.545-14.67-11.857a14.522,14.522,0,0,0,2.449-15.335c-4.388,6.393-13.4,7.073-21.151,7.123A6.344,6.344,0,0,0,508.262,119c-8.1,10.862-23.9,12.874-33.541,22.4a28.277,28.277,0,0,0-5.215,7.113,53.237,53.237,0,0,0-20.065,41.678,53.808,53.808,0,0,0,.386,6.327,14.6,14.6,0,0,0-.611,4.262c0,4.178,1.6,7.651,3.714,8.394a53.07,53.07,0,0,0,3.18,6.848,49.108,49.108,0,0,0,29.461,30.986v14.966c0,.115.006.229.009.344-19.738,2.663-46.081,14.977-50.65,31.844-3.945,14.566-8.157,30.562-10.253,39.954,17.962,12.621,55.65,20.031,79.27,20.031,22.442,0,59.122-6.689,76.554-18.181C578.614,325.646,574.269,308.947,570.152,294Z" transform="translate(-424.678 -119)" fill="url(#linear-gradient)"/>
    </g>
    <path id="Tracé_10071" data-name="Tracé 10071" d="M507.365,528.572c21.648,0,57.032-6.452,73.849-17.538-1.822-9.955-6.012-26.064-9.984-40.48-5.058-18.36-36.982-31.088-56.025-31.088H496.853c-19.1,0-51.072,12.8-56.067,31.24-3.806,14.051-7.869,29.482-9.89,38.542C448.223,521.423,484.58,528.572,507.365,528.572Z" transform="translate(-229.766 -220.335)" fill="#5de8c1"/>
    <ellipse id="Ellipse_1005" data-name="Ellipse 1005" cx="51.463" cy="51.463" rx="51.463" ry="51.463" transform="translate(225.018 98.613)" fill="#72351c"/>
    <path id="Tracé_10072" data-name="Tracé 10072" d="M449.291,261.311h32.975v26.38a16.488,16.488,0,0,1-16.488,16.488h0a16.488,16.488,0,0,1-16.488-16.488v-26.38Z" transform="translate(-189.42 -68.371)" opacity="0.1"/>
    <path id="Tracé_10073" data-name="Tracé 10073" d="M454.021,258.553h23.516a4.73,4.73,0,0,1,4.73,4.73v21.65a16.488,16.488,0,0,1-16.488,16.488h0a16.488,16.488,0,0,1-16.488-16.488v-21.65A4.73,4.73,0,0,1,454.021,258.553Z" transform="translate(-189.42 -66.834)" fill="#fda57d"/>
    <path id="Tracé_10074" data-name="Tracé 10074" d="M563.709,403.45a47.459,47.459,0,0,0,32.975.091v-4.051H563.709Z" transform="translate(-303.776 -198.059)" opacity="0.1"/>
    <ellipse id="Ellipse_1006" data-name="Ellipse 1006" cx="47.265" cy="47.265" rx="47.265" ry="47.265" transform="translate(229.217 113.071)" fill="#fda57d"/>
    <path id="Tracé_10075" data-name="Tracé 10075" d="M525.046,194.6s19.919,40.433,76.109,16.946L588.074,191.03l-23.19-8.324Z" transform="translate(-282.231 -77.254)" opacity="0.1"/>
    <path id="Tracé_10076" data-name="Tracé 10076" d="M525.046,193.254s19.919,40.433,76.109,16.946l-13.081-20.514-23.189-8.325Z" transform="translate(-282.231 -76.506)" fill="#72351c"/>
    <path id="Tracé_10077" data-name="Tracé 10077" d="M523.405,161a27.3,27.3,0,0,1,6.768-11.008c9.3-9.19,24.538-11.13,32.356-21.609a6.119,6.119,0,0,1-2.8,8.63c7.48-.049,16.17-.7,20.4-6.871a14.009,14.009,0,0,1-2.363,14.793c6.639.3,13.722,4.807,14.151,11.438.286,4.418-2.484,8.6-6.115,11.135s-8.023,3.7-12.347,4.65C560.836,174.941,515.17,186.6,523.405,161Z" transform="translate(-280.767 -46.984)" fill="#72351c"/>
    <path id="Tracé_10078" data-name="Tracé 10078" d="M588.886,307.6h-1.253l-24.379,21.7c-23.487-11-40.73,0-40.73,0l-25.568-20.811-2.578.324a47.261,47.261,0,1,0,94.514-1.216ZM541.551,337.63c-9.195,0-16.649-1.864-16.649-4.162s7.454-4.162,16.649-4.162,16.649,1.863,16.649,4.162S550.746,337.63,541.551,337.63Z" transform="translate(-265.142 -146.853)" fill="#72351c"/>
    <ellipse id="Ellipse_1007" data-name="Ellipse 1007" cx="4.397" cy="8.244" rx="4.397" ry="8.244" transform="translate(224.801 152.046)" fill="#fda57d"/>
    <ellipse id="Ellipse_1008" data-name="Ellipse 1008" cx="4.397" cy="8.244" rx="4.397" ry="8.244" transform="translate(319.344 152.046)" fill="#fda57d"/>
    <g id="Groupe_3238" data-name="Groupe 3238" transform="translate(184.545 244.473)" opacity="0.7">
      <rect id="Rectangle_2304" data-name="Rectangle 2304" width="182.91" height="105.327" rx="14.5" transform="translate(0 0)" fill="url(#linear-gradient)"/>
    </g>
    <rect id="Rectangle_2305" data-name="Rectangle 2305" width="176.283" height="103.384" rx="26.835" transform="translate(187.859 246.417)" fill="#535461"/>
    <ellipse id="Ellipse_1009" data-name="Ellipse 1009" cx="5.964" cy="5.964" rx="5.964" ry="5.964" transform="translate(270.036 292.144)" fill="#fff"/>
    <rect id="Rectangle_2306" data-name="Rectangle 2306" width="505.221" height="7.655" transform="translate(23.39 368.513)" fill="#e0e0e0"/>
    <rect id="Rectangle_2307" data-name="Rectangle 2307" width="505.221" height="2.552" transform="translate(23.39 368.513)" opacity="0.1"/>
    <path id="Tracé_10079" data-name="Tracé 10079" d="M987.364,650.776v39.337a8.293,8.293,0,0,1-8.293,8.293h4.253a8.293,8.293,0,0,0,8.293-8.293V650.776Z" transform="translate(-487.672 -348.606)" opacity="0.1"/>
    <path id="Tracé_10080" data-name="Tracé 10080" d="M945.516,594.152a2.483,2.483,0,0,0-1.878.953c-.558,1.011.453,2.151,1.375,2.846a18.3,18.3,0,0,1,4.659,4.337c1.158,1.792,1.522,4.292.256,6.01-1.654,2.242-5.6,2.725-5.98,5.484-.245,1.772,1.286,3.283,2.839,4.172,3.831,2.194,8.769,2.78,11.544,6.213,1.148-2.36,3.715-3.725,6.274-4.307s5.218-.539,7.813-.934a2.7,2.7,0,0,0,2.156-1.143c.725-1.472-1.342-3.237-.628-4.715.543-1.125,2.138-1.037,3.3-1.488,1.9-.733,2.679-3.175,2.141-5.136a9.671,9.671,0,0,0-3.658-4.75c-4.31-3.386-9.491-5.378-14.733-6.81-2.438-.666-5.3-1.711-7.831-1.812C950.722,592.974,947.935,593.738,945.516,594.152Z" transform="translate(-472.304 -323.687)" fill="#eee"/>
  </g>
</svg>
