<?xml version="1.0" encoding="UTF-8"?><svg id="a" xmlns="http://www.w3.org/2000/svg" width="1445.9" height="1080" xmlns:xlink="http://www.w3.org/1999/xlink" viewBox="0 0 1445.9 1080"><defs><style>.ba{fill:url(#u);}.bb{fill:url(#t);}.bc{fill:url(#v);}.bd{fill:url(#e);}.be{fill:url(#d);}.bf{fill:url(#g);}.bg{fill:url(#f);}.bh{fill:url(#s);}.bi{fill:url(#c);}.bj{fill:url(#aq);}.bk{fill:url(#av);}.bl,.bm,.bn,.bo,.bp,.bq,.br,.bs,.bt,.bu,.bv,.bw,.bx,.by,.c`,.ca,.cb,.cc,.cd,.ce,.cf{fill:none;}.cg{letter-spacing:.011em;}.ch{fill:#001a33;}.ci{fill:#fff;}.cj{fill:#32679b;}.ck{fill:#d9e4fb;}.cl{fill:#c5d6f2;}.cm{fill:#144b82;}.cn,.co{fill:#0c3157;}.cp,.cq{fill:#4c95db;}.cr{letter-spacing:.021em;}.bm{stroke:#c5d6f2;stroke-linecap:round;stroke-width:.819px;}.bm,.cs{stroke-miterlimit:10;}.ct{fill:#67679e;font-size:9.245px;}.ct,.co,.cu,.cv,.cq{isolation:isolate;}.ct,.cq{font-family:Nunito-ExtraBold, Nunito;}.bn{clip-path:url(#x);}.bo{clip-path:url(#r);}.bp{clip-path:url(#p);}.bq{clip-path:url(#j);}.br{clip-path:url(#n);}.bs{clip-path:url(#l);}.bt{clip-path:url(#ab);}.bu{clip-path:url(#ah);}.bv{clip-path:url(#b`);}.bw{clip-path:url(#as);}.bx{clip-path:url(#au);}.by{clip-path:url(#an);}.c`{clip-path:url(#ax);}.ca{clip-path:url(#aj);}.cb{clip-path:url(#ap);}.cc{clip-path:url(#af);}.cd{clip-path:url(#al);}.ce{clip-path:url(#ad);}.cf{clip-path:url(#a`);}.co{opacity:.48;}.cu{opacity:.03;}.cs{fill:#010917;stroke:#0c3157;}.cw{clip-path:url(#y);}.cx{clip-path:url(#w);}.cy{clip-path:url(#m);}.d`{clip-path:url(#k);}.da{clip-path:url(#i);}.db{clip-path:url(#h);}.dc{clip-path:url(#q);}.dd{clip-path:url(#o);}.de{clip-path:url(#ag);}.df{clip-path:url(#aa);}.dg{clip-path:url(#ak);}.dh{clip-path:url(#ay);}.di{clip-path:url(#at);}.dj{clip-path:url(#ac);}.dk{clip-path:url(#am);}.dl{clip-path:url(#aw);}.dm{clip-path:url(#ar);}.dn{clip-path:url(#ae);}.do{clip-path:url(#ao);}.dp{clip-path:url(#ai);}.dq{letter-spacing:-.005em;}.dr{letter-spacing:-.01em;}.cq{font-size:45.597px;}</style><linearGradient id="c" x1="1097.1" y1="360.7" x2="1224.5" y2="360.7" gradientTransform="translate(0 -1)" gradientUnits="userSpaceOnUse"><stop offset="0" stop-color="#32679b"/><stop offset="1" stop-color="#004a8f"/></linearGradient><linearGradient id="d" x1="323.373" y1="883.765" x2="336.422" y2="883.765" gradientTransform="translate(0 -1)" gradientUnits="userSpaceOnUse"><stop offset="0" stop-color="#32679b"/><stop offset="1" stop-color="#004a8f"/></linearGradient><linearGradient id="e" x1="380.961" y1="883.75" x2="387.74" y2="883.75" gradientTransform="translate(0 -1)" gradientUnits="userSpaceOnUse"><stop offset="0" stop-color="#32679b"/><stop offset="1" stop-color="#004a8f"/></linearGradient><linearGradient id="f" x1="351.336" y1="883.8" x2="364.386" y2="883.8" gradientTransform="translate(0 -1)" gradientUnits="userSpaceOnUse"><stop offset="0" stop-color="#32679b"/><stop offset="1" stop-color="#004a8f"/></linearGradient><linearGradient id="g" x1="401.036" y1="883.85" x2="414.086" y2="883.85" gradientTransform="translate(0 -1)" gradientUnits="userSpaceOnUse"><stop offset="0" stop-color="#32679b"/><stop offset="1" stop-color="#004a8f"/></linearGradient><clipPath id="h"><rect x="225" y="308.3" width="1093.8" height="613.6" rx="10" ry="10" style="fill:none;"/></clipPath><clipPath id="j"><polygon points="778.9 654.2 779.9 654.2 778.9 655.2 778.9 654.2" style="fill:none;"/></clipPath><clipPath id="i"><polygon points="776.9 652.2 775.9 652.2 776.9 651.2 776.9 652.2" style="clip-path:url(#j); fill:none;"/></clipPath><clipPath id="l"><polygon points="747.8 622.5 748.8 622.5 747.8 623.5 747.8 622.5" style="fill:none;"/></clipPath><clipPath id="k"><polygon points="745.8 620.5 744.8 620.5 745.8 619.5 745.8 620.5" style="clip-path:url(#l); fill:none;"/></clipPath><clipPath id="n"><polygon points="742 617.8 743 617.8 742 618.8 742 617.8" style="fill:none;"/></clipPath><clipPath id="m"><polygon points="740 615.8 739 615.8 740 614.8 740 615.8" style="clip-path:url(#n); fill:none;"/></clipPath><clipPath id="p"><polygon points="766.8 682.5 767.8 682.5 766.8 683.5 766.8 682.5" style="fill:none;"/></clipPath><clipPath id="o"><polygon points="764.8 680.5 763.8 680.5 764.8 679.5 764.8 680.5" style="clip-path:url(#p); fill:none;"/></clipPath><clipPath id="r"><polygon points="761 677.8 762 677.8 761 678.8 761 677.8" style="fill:none;"/></clipPath><clipPath id="q"><polygon points="759 675.8 758 675.8 759 674.8 759 675.8" style="clip-path:url(#r); fill:none;"/></clipPath><linearGradient id="s" x1="961.714" y1="558.4" x2="1110.04" y2="558.4" gradientTransform="translate(0 -1)" gradientUnits="userSpaceOnUse"><stop offset="0" stop-color="#32679b"/><stop offset="1" stop-color="#004a8f"/></linearGradient><linearGradient id="t" x1="1062.514" y1="746.7" x2="1171.886" y2="746.7" gradientTransform="translate(0 -1)" gradientUnits="userSpaceOnUse"><stop offset="0" stop-color="#32679b"/><stop offset="1" stop-color="#004a8f"/></linearGradient><linearGradient id="u" x1="1079.714" y1="800.8" x2="1189.086" y2="800.8" gradientTransform="translate(0 -1)" gradientUnits="userSpaceOnUse"><stop offset="0" stop-color="#32679b"/><stop offset="1" stop-color="#004a8f"/></linearGradient><linearGradient id="v" x1="1088.314" y1="827.9" x2="1197.686" y2="827.9" gradientTransform="translate(0 -1)" gradientUnits="userSpaceOnUse"><stop offset="0" stop-color="#32679b"/><stop offset="1" stop-color="#004a8f"/></linearGradient><clipPath id="x"><polygon points="1206.1 700.2 1207.1 700.2 1206.1 701.2 1206.1 700.2" style="fill:none;"/></clipPath><clipPath id="w"><polygon points="1204.1 698.2 1203.1 698.2 1204.1 697.2 1204.1 698.2" style="clip-path:url(#x); fill:none;"/></clipPath><clipPath id="a`"><polygon points="1201.7 696.5 1202.7 696.5 1201.7 697.5 1201.7 696.5" style="fill:none;"/></clipPath><clipPath id="y"><polygon points="1199.7 694.5 1198.7 694.5 1199.7 693.5 1199.7 694.5" style="clip-path:url(#a`); fill:none;"/></clipPath><clipPath id="ab"><polygon points="1182.3 610.8 1183.3 610.8 1182.3 611.8 1182.3 610.8" style="fill:none;"/></clipPath><clipPath id="aa"><polygon points="1180.3 608.8 1179.3 608.8 1180.3 607.8 1180.3 608.8" style="clip-path:url(#ab); fill:none;"/></clipPath><clipPath id="ad"><polygon points="1175.6 605.3 1176.6 605.3 1175.6 606.3 1175.6 605.3" style="fill:none;"/></clipPath><clipPath id="ac"><polygon points="1173.6 603.3 1172.6 603.3 1173.6 602.3 1173.6 603.3" style="clip-path:url(#ad); fill:none;"/></clipPath><clipPath id="af"><polygon points="1282.3 578.8 1283.3 578.8 1282.3 579.8 1282.3 578.8" style="fill:none;"/></clipPath><clipPath id="ae"><polygon points="1280.3 576.8 1279.3 576.8 1280.3 575.8 1280.3 576.8" style="clip-path:url(#af); fill:none;"/></clipPath><clipPath id="ah"><polygon points="1275.6 573.3 1276.6 573.3 1275.6 574.3 1275.6 573.3" style="fill:none;"/></clipPath><clipPath id="ag"><polygon points="1273.6 571.3 1272.6 571.3 1273.6 570.3 1273.6 571.3" style="clip-path:url(#ah); fill:none;"/></clipPath><clipPath id="aj"><polygon points="1232.3 594.8 1233.3 594.8 1232.3 595.8 1232.3 594.8" style="fill:none;"/></clipPath><clipPath id="ai"><polygon points="1230.3 592.8 1229.3 592.8 1230.3 591.8 1230.3 592.8" style="clip-path:url(#aj); fill:none;"/></clipPath><clipPath id="al"><polygon points="1225.6 589.3 1226.6 589.3 1225.6 590.3 1225.6 589.3" style="fill:none;"/></clipPath><clipPath id="ak"><polygon points="1223.6 587.3 1222.6 587.3 1223.6 586.3 1223.6 587.3" style="clip-path:url(#al); fill:none;"/></clipPath><clipPath id="an"><polygon points="1172.3 551.8 1173.3 551.8 1172.3 552.8 1172.3 551.8" style="fill:none;"/></clipPath><clipPath id="am"><polygon points="1170.3 549.8 1169.3 549.8 1170.3 548.8 1170.3 549.8" style="clip-path:url(#an); fill:none;"/></clipPath><clipPath id="ap"><polygon points="1165.6 546.3 1166.6 546.3 1165.6 547.3 1165.6 546.3" style="fill:none;"/></clipPath><clipPath id="ao"><polygon points="1163.6 544.3 1162.6 544.3 1163.6 543.3 1163.6 544.3" style="clip-path:url(#ap); fill:none;"/></clipPath><linearGradient id="aq" x1="1204.962" y1="613.35" x2="1318.738" y2="613.35" gradientTransform="translate(0 -1)" gradientUnits="userSpaceOnUse"><stop offset="0" stop-color="#32679b"/><stop offset="1" stop-color="#004a8f"/></linearGradient><clipPath id="as"><polygon points="1157.3 439.8 1158.3 439.8 1157.3 440.8 1157.3 439.8" style="fill:none;"/></clipPath><clipPath id="ar"><polygon points="1155.3 437.8 1154.3 437.8 1155.3 436.8 1155.3 437.8" style="clip-path:url(#as); fill:none;"/></clipPath><clipPath id="au"><polygon points="1150.6 434.3 1151.6 434.3 1150.6 435.3 1150.6 434.3" style="fill:none;"/></clipPath><clipPath id="at"><polygon points="1148.6 432.3 1147.6 432.3 1148.6 431.3 1148.6 432.3" style="clip-path:url(#au); fill:none;"/></clipPath><linearGradient id="av" x1="255.539" y1="469.25" x2="268.857" y2="469.25" gradientTransform="translate(0 -1)" gradientUnits="userSpaceOnUse"><stop offset="0" stop-color="#32679b"/><stop offset="1" stop-color="#004a8f"/></linearGradient><clipPath id="ax"><polygon points="217.8 125.1 218.8 125.1 217.8 126.1 217.8 125.1" style="fill:none;"/></clipPath><clipPath id="aw"><polygon points="215.8 123.1 214.8 123.1 215.8 122.1 215.8 123.1" style="clip-path:url(#ax); fill:none;"/></clipPath><clipPath id="b`"><polygon points="357.8 139.1 358.8 139.1 357.8 140.1 357.8 139.1" style="fill:none;"/></clipPath><clipPath id="ay"><polygon points="355.8 137.1 354.8 137.1 355.8 136.1 355.8 137.1" style="clip-path:url(#b`); fill:none;"/></clipPath></defs><g id="b"><polygon points="1375.4 1080 0 1080 130.2 0 1375.4 0 1375.4 1080" style="fill:none;"/><g><path d="M227.8,310.9H1312.9c3.9,0,7,3.2,7,7V912.6c0,5.7-4.6,10.3-10.3,10.3H227.8c-3.9,0-7-3.2-7-7V318c-.1-3.9,3.1-7.1,7-7.1Z" style="fill:#010917; stroke:#0c3157; stroke-miterlimit:10;"/><g><path d="M1210.9,373.3h-100.2c-7.5,0-13.6-6.1-13.6-13.6s6.1-13.6,13.6-13.6h100.2c7.5,0,13.6,6.1,13.6,13.6s-6,13.6-13.6,13.6Z" style="fill:url(#c);"/><text transform="translate(322.251 533.698)" style="fill:#4c95db; font-family:Nunito-ExtraBold, Nunito; font-size:45.597px; isolation:isolate;"><tspan x="0" y="0" style="letter-spacing:-.005em;">L</tspan><tspan x="25.443" y="0">o</tspan><tspan x="52.254" y="0" style="letter-spacing:-.01em;">r</tspan><tspan x="70.082" y="0">em</tspan></text><text transform="translate(322.251 581.575)" style="fill:#4c95db; font-family:Nunito-ExtraBold, Nunito; font-size:45.597px; isolation:isolate;"><tspan x="0" y="0" style="letter-spacing:.021em;">ipsum s</tspan><tspan x="171.169" y="0" style="letter-spacing:.011em;">e</tspan><tspan x="195.974" y="0" style="letter-spacing:.021em;">t</tspan></text><g><path d="M336.1,877.7c-.3,.1-.5,.3-.7,.4-.3,.1-.5,.2-.8,.2-.1,0-.2,0-.3-.1-.8-.7-1.7-.9-2.7-.6-1.3,.4-2.1,1.7-1.8,3.1q0,.1-.1,.1c-.4,0-.9-.1-1.3-.2-1.6-.4-2.9-1.2-4-2.4l-.2-.2c-.3,.6-.4,1.3-.3,1.9,.1,.7,.5,1.2,1.1,1.6h-.2c-.3,0-.6-.1-.9-.3q-.1,0-.1,.1c0,.9,.4,1.6,1.2,2.2,.3,.2,.6,.3,1,.4-.4,.1-.8,.1-1.2,.1,.2,.6,.5,1,1,1.3,.4,.3,1,.5,1.6,.5-1.2,.9-2.5,1.3-4,1.1,1,.6,2,1,3.1,1.1,1,.1,1.9,.1,2.9-.1,1.8-.4,3.3-1.4,4.4-3,1-1.4,1.5-3,1.4-4.7q0-.1,.1-.2c.2-.2,.4-.3,.6-.5l.2-.2s.1-.2,.2-.3,.1-.2,.2-.3c-.5,.2-1,.3-1.5,.4,.5-.3,.9-.8,1.1-1.4h0Z" style="fill:url(#d);"/><path d="M382.9,889.3h2.4v-6h2l.3-2.3h-2.3v-1.7c0-.5,.4-.9,.9-.9h1.5v-2.1l-2-.1c-1.5,0-2.8,1.2-2.8,2.7v2h-2v2.3h2v6.1h0Z" style="fill:url(#e);"/><path d="M351.6,880.6h2.7v8.7h-2.7v-8.7Zm1.3-4.3c-.9,0-1.6,.7-1.6,1.6s.7,1.6,1.6,1.6,1.6-.7,1.6-1.6-.7-1.6-1.6-1.6Zm8.2,4.1c-1.3,0-2.2,.7-2.6,1.4h0v-1.2h-2.5v8.7h2.7v-4.3c0-1.1,.2-2.2,1.6-2.2s1.4,1.3,1.4,2.3v4.2h2.7v-4.8c0-2.3-.5-4.1-3.3-4.1h0Z" style="fill:url(#f);"/><path d="M410.4,876.3h-5.7c-2,0-3.7,1.6-3.7,3.7v5.7c0,2,1.6,3.7,3.7,3.7h5.7c2,0,3.7-1.6,3.7-3.7v-5.7c0-2.1-1.7-3.7-3.7-3.7Zm2.5,9.4c0,1.4-1.1,2.5-2.5,2.5h-5.7c-1.4,0-2.5-1.1-2.5-2.5v-5.7c0-1.4,1.1-2.5,2.5-2.5h5.7c1.4,0,2.5,1.1,2.5,2.5v5.7Zm-5.3-6.2c-1.8,0-3.3,1.5-3.3,3.3s1.5,3.3,3.3,3.3,3.3-1.5,3.3-3.3-1.5-3.3-3.3-3.3Zm0,5.4c-1.2,0-2.1-1-2.1-2.1s1-2.1,2.1-2.1,2.1,1,2.1,2.1-1,2.1-2.1,2.1Zm4.2-5.6c0,.4-.4,.8-.8,.8s-.8-.4-.8-.8,.4-.8,.8-.8,.8,.3,.8,.8Z" style="fill:url(#g);"/></g><rect x="610.813" y="354.338" width="93.923" height="4.733" style="fill:#4c95db;"/><rect x="326.555" y="609.134" width="288.066" height="4.733" style="fill:#144b82;"/><rect x="326.555" y="620.188" width="288.066" height="4.733" style="fill:#144b82;"/><rect x="326.555" y="631.243" width="288.066" height="4.733" style="fill:#144b82;"/><rect x="326.555" y="642.297" width="288.066" height="4.733" style="fill:#144b82;"/><rect x="326.555" y="653.352" width="288.066" height="4.733" style="fill:#144b82;"/><rect x="326.555" y="664.406" width="288.066" height="4.733" style="fill:#144b82;"/><rect x="738.599" y="354.338" width="93.923" height="4.733" style="fill:#4c95db;"/><rect x="866.386" y="354.338" width="93.923" height="4.733" style="fill:#4c95db;"/></g><g style="clip-path:url(#h);"><g><g><path d="M762.5,649.7l155-49.3c4.3-1.4,8.9,1,10.3,5.3l33.3,104.6c1.4,4.3-1,8.9-5.3,10.3l-155,49.3c-4.3,1.4-8.9-1-10.3-5.3l-33.3-104.6c-1.4-4.3,1-8.9,5.3-10.3Z" style="fill:#0c3157;"/><g><g/><g style="clip-path:url(#i);"><g style="isolation:isolate; opacity:.03;"/></g></g><g><g><g><g/><g style="clip-path:url(#k);"><g style="isolation:isolate;"/></g></g><g><g/><g style="clip-path:url(#m);"><g style="isolation:isolate;"/></g></g><path d="M811.5,667.4c2.7,8.4-2,17.3-10.4,20s-17.3-2-20-10.4,2-17.3,10.4-20c8.4-2.6,17.4,2,20,10.4Z" style="fill:#144b82;"/></g><g><line x1="794.6" y1="666.7" x2="798.4" y2="678.6" style="fill:none; stroke:#c5d6f2; stroke-linecap:round; stroke-miterlimit:10; stroke-width:.819px;"/><line x1="802.4" y1="670.8" x2="790.6" y2="674.5" style="fill:none; stroke:#c5d6f2; stroke-linecap:round; stroke-miterlimit:10; stroke-width:.819px;"/></g></g><g><g><g><g/><g style="clip-path:url(#o);"><g style="isolation:isolate;"/></g></g><g><g/><g style="clip-path:url(#q);"><g style="isolation:isolate;"/></g></g><path d="M830.6,727.5c2.7,8.4-2,17.3-10.4,20s-17.3-2-20-10.4,2-17.3,10.4-20c8.4-2.7,17.4,2,20,10.4Z" style="fill:#144b82;"/></g><g><line x1="813.7" y1="726.8" x2="817.5" y2="738.6" style="fill:none; stroke:#c5d6f2; stroke-linecap:round; stroke-miterlimit:10; stroke-width:.819px;"/><line x1="821.5" y1="730.8" x2="809.7" y2="734.6" style="fill:none; stroke:#c5d6f2; stroke-linecap:round; stroke-miterlimit:10; stroke-width:.819px;"/></g></g></g><g><path d="M809.6,797.8l155-49.3c4.3-1.4,8.9,1,10.3,5.3l19.1,60.2c1.4,4.3-1,8.9-5.3,10.3l-155,49.3c-4.3,1.4-8.9-1-10.3-5.3l-19.1-60.2c-1.4-4.3,1-8.9,5.3-10.3Z" style="fill:#0c3157;"/><path d="M959.2,763l-7.8,2.5c-.7,.2-1.1,1-.9,1.7l1.1,3.6c.2,.7,1,1.1,1.7,.9l.9-.3,.4,1.2,1.4-1.8,5.1-1.6c.7-.2,1.1-1,.9-1.7l-1.1-3.6c-.2-.7-1-1.1-1.7-.9h0Zm.1,5l-5.2,1.7c-.2,.1-.4,0-.5-.3-.1-.2,0-.4,.3-.5l5.2-1.7c.2-.1,.4,0,.5,.3,.1,.2-.1,.4-.3,.5Zm-.7-2.2l-5.2,1.7c-.2,.1-.4,0-.5-.3-.1-.2,0-.4,.3-.5l5.2-1.7c.2-.1,.4,0,.5,.3s-.1,.4-.3,.5Z" style="fill:#32679b;"/><path d="M824.7,814.7c.1-.3,.3-.5,.5-.5s.4,0,.5,.2,.2,.4,0,.7c-.1,.3-.1,.5-.2,.7v.7c.4-.1,.7-.1,1,.1,.3,.2,.5,.4,.6,.8,.1,.4,.1,.7-.1,1-.2,.3-.4,.5-.8,.6-.4,.1-.8,.1-1.1-.1s-.5-.5-.7-1c-.1-.4-.2-.9-.2-1.4,.1-.6,.2-1.2,.5-1.8h0Zm3.4-1.1c.1-.3,.3-.5,.5-.5s.4,0,.5,.2,.2,.4,0,.7c-.1,.3-.1,.5-.2,.7v.7c.4-.1,.7-.1,1,.1,.3,.2,.5,.4,.6,.8,.1,.4,.1,.7-.1,1-.2,.3-.4,.5-.8,.6-.4,.1-.8,.1-1.1-.1s-.5-.5-.7-1c-.1-.4-.2-.9-.2-1.4,.2-.6,.3-1.2,.5-1.8h0Z" style="fill:#144b82;"/><path d="M974.7,810.7c-.1,.3-.3,.5-.5,.5s-.4,0-.5-.2-.2-.4,0-.7c.1-.3,.1-.5,.2-.7v-.7c-.4,.1-.7,.1-1-.1-.3-.2-.5-.4-.6-.8-.1-.4-.1-.7,.1-1,.2-.3,.4-.5,.8-.6,.4-.1,.8-.1,1.1,.1s.5,.5,.7,1c.1,.4,.2,.9,.2,1.4-.2,.6-.3,1.1-.5,1.8h0Zm-3.5,1.1c-.1,.3-.3,.5-.5,.5s-.4,0-.5-.2-.2-.4,0-.7c.1-.3,.1-.5,.2-.7v-.7c-.4,.1-.7,.1-1-.1s-.5-.4-.6-.8c-.1-.4-.1-.7,.1-1,.2-.3,.4-.5,.8-.6,.4-.1,.8-.1,1.1,.1s.5,.5,.7,1c.1,.4,.2,.9,.2,1.4-.2,.6-.3,1.2-.5,1.8h0Z" style="fill:#144b82;"/></g><g><path d="M996.6,899.8l-125.9,40c-12.4,3.9-25.6-2.9-29.5-15.3h0c-3.9-12.4,2.9-25.6,15.3-29.5l125.9-40c12.4-3.9,25.6,2.9,29.5,15.3h0c4,12.4-2.9,25.6-15.3,29.5Z" style="fill:#0c3157;"/><path d="M867.4,929c-6.4,2-13.3-1.5-15.3-7.9s1.5-13.3,7.9-15.3l125.9-40c6.4-2,13.3,1.5,15.3,7.9s-1.5,13.3-7.9,15.3l-125.9,40h0Z" style="fill:#001a33;"/><path d="M869.4,917.3l-1.2-.6c.1-.5,.1-1-.1-1.5-.5-1.5-2.1-2.4-3.6-1.9s-2.4,2.1-1.9,3.6,2.1,2.4,3.6,1.9c.5-.2,.9-.5,1.3-.8l1.2,.6c.2,.1,.4,.1,.6,0,.2-.1,.3-.2,.4-.4,.2-.3,.1-.7-.3-.9h0Zm-5.3-.8c-.2-.8,.2-1.6,.9-1.8,.8-.2,1.6,.2,1.8,.9s-.2,1.6-.9,1.8c-.8,.3-1.6-.1-1.8-.9Z" style="fill:#32679b;"/></g><g><path d="M1145.4,651.4l-144.7,46c-7.2,2.3-14.8-1.7-17.1-8.9l-55-172.9c-2.3-7.2,1.7-14.8,8.9-17.1l144.7-46c7.2-2.3,14.8,1.7,17.1,8.9l55,172.9c2.3,7.2-1.7,14.8-8.9,17.1h0Z" style="fill:#0c3157;"/><g><path d="M958.2,551.2l137.5-43.7c3.6-1.1,7.4,.8,8.6,4.4l39,122.5c1.1,3.6-.8,7.4-4.4,8.6l-137.5,43.7c-3.6,1.1-7.4-.8-8.6-4.4l-39-122.5c-1.2-3.7,.8-7.5,4.4-8.6Z" style="fill:#001a33;"/><path d="M1103.1,546.5l-128.4,40.8c-5.2,1.7-10.8-1.2-12.5-6.5h0c-1.7-5.2,1.2-10.8,6.5-12.5l128.4-40.8c5.2-1.7,10.8,1.2,12.5,6.5h0c1.6,5.3-1.3,10.9-6.5,12.5Z" style="fill:url(#s);"/><polygon points="1091.1 521.7 1087.1 519.6 1087.5 518.8 1090.7 520.5 1092.4 517.3 1093.2 517.7 1091.1 521.7" style="fill:#fff;"/></g></g><g><path d="M1004.2,726.3l155-49.3c4.3-1.4,8.9,1,10.3,5.3l52.6,165.4c1.4,4.3-1,8.9-5.3,10.3l-155,49.3c-4.3,1.4-8.9-1-10.3-5.3l-52.6-165.4c-1.4-4.3,1-8.9,5.3-10.3Z" style="fill:#0c3157;"/><path d="M1164.9,741l-89.4,28.4c-5.2,1.7-10.8-1.2-12.5-6.5h0c-1.7-5.2,1.2-10.8,6.5-12.5l89.4-28.4c5.2-1.7,10.8,1.2,12.5,6.5h0c1.7,5.3-1.2,10.9-6.5,12.5Z" style="fill:url(#t);"/><path d="M1173.5,768.1l-89.4,28.4c-5.2,1.7-10.8-1.2-12.5-6.5h0c-1.7-5.2,1.2-10.8,6.5-12.5l89.4-28.4c5.2-1.7,10.8,1.2,12.5,6.5h0c1.7,5.2-1.2,10.8-6.5,12.5Z" style="fill:#001a33;"/><path d="M1182.1,795.1l-89.4,28.4c-5.2,1.7-10.8-1.2-12.5-6.5h0c-1.7-5.2,1.2-10.8,6.5-12.5l89.4-28.4c5.2-1.7,10.8,1.2,12.5,6.5h0c1.7,5.3-1.2,10.9-6.5,12.5Z" style="fill:url(#u);"/><path d="M1190.7,822.2l-89.4,28.4c-5.2,1.7-10.8-1.2-12.5-6.5h0c-1.7-5.2,1.2-10.8,6.5-12.5l89.4-28.4c5.2-1.7,10.8,1.2,12.5,6.5h0c1.7,5.2-1.2,10.8-6.5,12.5Z" style="fill:url(#v);"/><path d="M1199.3,849.2l-89.4,28.4c-5.2,1.7-10.8-1.2-12.5-6.5h0c-1.7-5.2,1.2-10.8,6.5-12.5l89.4-28.4c5.2-1.7,10.8,1.2,12.5,6.5h0c1.7,5.3-1.2,10.9-6.5,12.5Z" style="fill:#001a33;"/><rect x="1069.49" y="753.669" width=".82" height="133.462" transform="translate(-198.144 362.353) rotate(-17.62)" style="fill:#32679b;"/></g><g><path d="M1221.9,726.4l155-49.3c4.3-1.4,8.9,1,10.3,5.3l58.3,183.2c1.4,4.3-1,8.9-5.3,10.3l-155,49.3c-4.3,1.4-8.9-1-10.3-5.3l-58.3-183.2c-1.4-4.3,1-8.9,5.3-10.3Z" style="fill:#0c3157;"/><g><g><g/><g style="clip-path:url(#w);"><g style="isolation:isolate;"/></g></g><g><g/><g style="clip-path:url(#y);"><g style="isolation:isolate;"/></g></g><path d="M1262.9,742.8c2.1,6.5-1.5,13.4-8,15.4s-13.4-1.5-15.4-8c-2.1-6.5,1.5-13.4,8-15.4,6.4-2,13.3,1.6,15.4,8Z" style="fill:#144b82;"/></g><g><path d="M1247.7,777.3l137.5-43.7c3.6-1.1,7.4,.8,8.6,4.4l39,122.5c1.1,3.6-.8,7.4-4.4,8.6l-137.5,43.7c-3.6,1.1-7.4-.8-8.6-4.4l-39-122.5c-1.2-3.6,.8-7.5,4.4-8.6Z" style="fill:#d9e4fb;"/><path d="M1247.9,777.5l137.5-43.7c3.6-1.1,7.4,.8,8.6,4.4l39,122.5c1.1,3.6-.8,7.4-4.4,8.6l-137.7,43.7c-3.6,1.1-7.4-.8-8.6-4.4l-39-122.5c-1-3.7,1-7.5,4.6-8.6Z" style="fill:#fff;"/><path d="M1247.8,777.4l137.5-43.7c3.6-1.1,7.4,.8,8.6,4.4l39,122.5c1.1,3.6-.8,7.4-4.4,8.6l-137.5,43.7c-3.6,1.1-7.4-.8-8.6-4.4l-39-122.5c-1.2-3.6,.8-7.5,4.4-8.6Z" style="fill:#144b82;"/></g><g><path d="M1376.7,840.4l-60.3,19.2c-3.1,1-6.4-.7-7.4-3.8l-11.4-35.8c-1-3.1,.7-6.4,3.8-7.4l8.9-2.8,1.9-5.6c.6-1.8,2-3.2,3.8-3.7l26.8-8.5c1.8-.6,3.7-.2,5.3,.9l4.8,3.5,8.9-2.8c3.1-1,6.4,.7,7.4,3.8l11.4,35.8c.9,2.9-.8,6.2-3.9,7.2h0Zm-74.1-24.1c-1,.3-1.6,1.5-1.3,2.5l11.4,35.8c.3,1,1.4,1.6,2.5,1.3l60.3-19.2c1-.3,1.6-1.5,1.3-2.5l-11.4-35.8c-.3-1-1.4-1.6-2.5-1.3l-9.9,3.1c-.6,.2-1.2,.1-1.7-.3l-5.6-4.1c-.5-.4-1.2-.5-1.8-.3l-26.8,8.5c-.6,.2-1.1,.7-1.3,1.3l-2.2,6.5c-.2,.6-.7,1-1.3,1.2l-9.7,3.3h0Z" style="fill:#0c3157;"/><path d="M1342.9,838.6c-7.9,2.5-16.3-1.9-18.8-9.8s1.9-16.3,9.8-18.8,16.3,1.9,18.8,9.8c2.5,7.9-1.9,16.3-9.8,18.8h0Zm-7.9-24.9c-5.8,1.9-9.1,8.1-7.2,13.9,1.9,5.8,8.1,9.1,13.9,7.2,5.8-1.9,9.1-8.1,7.2-13.9-1.8-5.8-8.1-9-13.9-7.2h0Z" style="fill:#fff;"/></g></g><g><path d="M1143.4,479.4l155-49.3c4.3-1.4,8.9,1,10.3,5.3l65,204.4c1.4,4.3-1,8.9-5.3,10.3l-155,49.3c-4.3,1.4-8.9-1-10.3-5.3l-65-204.4c-1.4-4.3,.9-8.9,5.3-10.3Z" style="fill:#0c3157;"/><g><g><g><g/><g style="clip-path:url(#aa);"><g style="isolation:isolate;"/></g></g><g><g/><g style="clip-path:url(#ac);"><g style="isolation:isolate;"/></g></g><path d="M1247.8,656.1c2.9,9-2.1,18.6-11.1,21.4-9,2.9-18.6-2.1-21.4-11.1-2.9-9,2.1-18.6,11.1-21.4,9-2.8,18.5,2.2,21.4,11.1Z" style="fill:#144b82;"/></g><path d="M1237.5,664.4h-.2l-7.9-2c-.2,0-.3-.2-.3-.3,0-.2,0-.3,.1-.4l5.3-6.2c.1-.1,.3-.2,.4-.1,.2,0,.3,.1,.3,.3l2.6,8.1c0,.2,0,.3-.1,.4l-.2,.2h0Zm-7.3-2.7l6.4,1.6-2.1-6.6-4.3,5h0Zm-1.4,5l-2.6-8.1c-.1-.2-.3-.4-.6-.3-.2,.1-.4,.3-.3,.6l2.6,8.1c.1,.2,.3,.4,.6,.3,.2-.2,.4-.4,.3-.6Z" style="fill:#c5d6f2;"/></g><g><g><g><g/><g style="clip-path:url(#ae);"><g style="isolation:isolate;"/></g></g><g><g/><g style="clip-path:url(#ag);"><g style="isolation:isolate;"/></g></g><path d="M1347.7,624.4c2.9,9-2.1,18.6-11.1,21.4-9,2.9-18.6-2.1-21.4-11.1-2.9-9,2.1-18.6,11.1-21.4,8.9-2.9,18.5,2.1,21.4,11.1Z" style="fill:#144b82;"/></g><path d="M1328.4,635.5h-.2c-.2,0-.3-.2-.3-.3l-2.6-8.1c-.1-.2,0-.3,.1-.4,.1-.1,.3-.2,.4-.1l7.9,2c.2,0,.3,.2,.3,.3s0,.3-.1,.4l-5.3,6.2q-.1-.1-.2,0h0Zm-2.1-8l2.1,6.6,4.3-5-6.4-1.6h0Zm11.3,4.5l-2.6-8.1c-.1-.2-.3-.4-.6-.3s-.4,.3-.3,.6l2.6,8.1c.1,.2,.3,.4,.6,.3,.3-.1,.4-.3,.3-.6Z" style="fill:#c5d6f2;"/></g><g><g><g><g/><g style="clip-path:url(#ai);"><g style="isolation:isolate;"/></g></g><g><g/><g style="clip-path:url(#ak);"><g style="isolation:isolate;"/></g></g><path d="M1297.7,640.2c2.9,9-2.1,18.6-11.1,21.4-9,2.9-18.6-2.1-21.4-11.1-2.9-9,2.1-18.6,11.1-21.4,9-2.8,18.6,2.2,21.4,11.1Z" style="fill:#144b82;"/></g><path d="M1276.2,652.1h-.2c-.2,0-.3-.1-.3-.3l-2.6-8.1c0-.2,0-.3,.1-.4s.3-.2,.4-.1l7.9,2c.2,0,.3,.2,.3,.3,0,.2,0,.3-.1,.4l-5.3,6.2c-.1-.1-.2-.1-.2,0h0Zm-2.1-8l2.1,6.6,4.3-5-6.4-1.6h0Zm12.2,4.3l-2.6-8.1c-.1-.2-.3-.4-.6-.3-.2,.1-.4,.3-.3,.6l2.6,8.1c.1,.2,.3,.4,.6,.3s.3-.4,.3-.6Zm3.7-1.2l-2.6-8.1c-.1-.2-.3-.4-.6-.3-.2,.1-.4,.3-.3,.6l2.6,8.1c.1,.2,.3,.4,.6,.3,.2-.1,.3-.4,.3-.6Z" style="fill:#c5d6f2;"/></g><g><g><g><g><g/><g style="clip-path:url(#am);"><g style="isolation:isolate;"/></g></g><g><g/><g style="clip-path:url(#ao);"><g style="isolation:isolate;"/></g></g></g><g><path d="M1208.9,632.3c-1.6,.5-3.4-.4-3.9-2s.4-3.4,2-3.9l124.1-39.5c1.6-.5,3.4,.4,3.9,2s-.4,3.4-2,3.9l-124.1,39.5Z" style="fill:#0c3157;"/><path d="M1336,588.7h0c-.7-2.1-2.9-3.2-5-2.6l-124.1,39.5c-2.1,.7-3.2,2.9-2.6,5h0c.7,2.1,2.9,3.2,5,2.6l124.1-39.5c2.1-.7,3.2-2.9,2.6-5Zm-127,43.7c-1.6,.5-3.4-.4-3.9-2s.4-3.4,2-3.9l124.1-39.5c1.6-.5,3.4,.4,3.9,2s-.4,3.4-2,3.9l-124.1,39.5Z" style="fill:#001a33;"/></g><path d="M1209,632.4c-1.6,.5-3.4-.4-3.9-2s.4-3.4,2-3.9l107.6-34.2c1.6-.5,3.4,.4,3.9,2s-.4,3.4-2,3.9l-107.6,34.2Z" style="fill:url(#aq);"/></g><g><path d="M1312.7,596.1c-.5-1.6,.4-3.3,2-3.8s3.3,.4,3.8,2-.4,3.3-2,3.8c-1.5,.5-3.2-.4-3.8-2Z" style="fill:#0c3157;"/><path d="M1314.6,591.9c1.8-.6,3.7,.4,4.3,2.2,.6,1.8-.4,3.7-2.2,4.3-1.8,.6-3.7-.4-4.3-2.2-.6-1.8,.4-3.7,2.2-4.3h0Zm1.9,5.9c1.5-.5,2.3-2.1,1.8-3.5-.5-1.5-2.1-2.3-3.5-1.8s-2.3,2.1-1.8,3.5c.4,1.5,2,2.3,3.5,1.8Z" style="fill:#001a33;"/></g></g><g><g><g><g/><g style="clip-path:url(#ar);"><g style="isolation:isolate;"/></g></g><g><g/><g style="clip-path:url(#at);"><g style="isolation:isolate;"/></g></g><circle cx="1244.263" cy="528.334" r="55.1" style="fill:#144b82;"/></g><polygon points="1225.1 508.8 1239.9 555.5 1270.4 520.1 1225.1 508.8" style="fill:#0c3157;"/></g></g></g></g><path d="M479.8,734.4h0c0,11.3-9.2,20.5-20.5,20.5h-116.3c-11.3,0-20.5-9.2-20.5-20.5h0c0-11.3,9.2-20.5,20.5-20.5h116.3c11.3,.1,20.5,9.2,20.5,20.5h0Z" style="fill:#4c95db;"/><path d="M379.2,387c1-.4,2-.7,3-1s2.1-.5,3.1-.6c.5,0,1-.1,1.6,0,.5,0,1.1,.1,1.6,.2s1.1,.3,1.6,.6l.7,.4,.3,.2c.1,.1,.2,.1,.3,.1,.9,.3,1.9,.5,2.9,.5s2-.1,3-.3c1-.2,1.9-.6,2.8-1,.8-.5,1.5-1.2,1.9-2,.2-.4,.3-.9,.4-1.3,0-.5,0-1-.1-1.5-.2-1-.5-2-.8-3-.4-1-.8-1.9-1.2-2.9s-1-1.8-1.5-2.7c-1.1-1.8-2.4-3.5-3.8-5-.7-.8-1.5-1.5-2.3-2.1-.8-.7-1.7-1.2-2.6-1.7s-1.8-.9-2.8-1.1-1.9-.3-2.9-.1c-1,.2-1.9,.5-2.8,1s-1.8,1.1-2.6,1.7c-1.6,1.3-3.2,2.6-4.6,4.2-1.4,1.5-2.8,3.1-4,4.8-1.2,1.7-2.2,3.5-2.9,5.4-.2,.5-.3,1-.4,1.4-.1,.5-.2,1-.2,1.4-.1,1,.2,1.9,.7,2.7,.3,.4,.6,.7,1,1l.3,.2,.3,.2c.2,.1,.5,.2,.7,.3,1,.3,2,.5,3,.6,2.2,0,4.3-.2,6.3-.6h0Zm0,.1c-1,.2-2.1,.4-3.1,.5s-2.1,.2-3.2,.2c-.5,0-1.1,0-1.6-.1-.3,0-.5-.1-.8-.1s-.5-.1-.8-.2-.5-.1-.8-.3c-.1-.1-.3-.1-.4-.2l-.4-.2c-.5-.3-.9-.6-1.3-1.1-.7-.9-1.1-2.1-1.1-3.2s.2-2.2,.6-3.3c.4-1,.8-2,1.3-2.9s1.1-1.9,1.7-2.7c.6-.9,1.3-1.7,1.9-2.6s1.4-1.6,2.1-2.4c1.5-1.5,3.1-2.9,4.9-4.2,.9-.6,1.8-1.2,2.7-1.7,.5-.3,1-.5,1.5-.7s1.1-.3,1.6-.4c1.1-.1,2.2,0,3.3,.3,1,.3,2,.8,2.9,1.3,.9,.6,1.8,1.2,2.6,1.9,.8,.7,1.5,1.5,2.3,2.2,.7,.8,1.4,1.6,2,2.5s1.2,1.7,1.8,2.6,1.1,1.8,1.6,2.7,1,1.9,1.4,2.9,.8,2,1,3.1c.1,.5,.2,1.1,.2,1.7s-.1,1.2-.4,1.7c-.2,.5-.6,1-1,1.5-.4,.4-.9,.8-1.3,1.1-.5,.3-1,.5-1.5,.7s-1.1,.3-1.6,.4-1.1,.2-1.6,.2h-1.6c-1.1-.1-2.2-.3-3.2-.8-.3-.1-.5-.3-.7-.4l-.6-.5c-.4-.3-.9-.5-1.3-.6-1-.3-2-.4-3.1-.3-2,.3-4,.7-6,1.4h0Z" style="fill:#0c3157;"/><path d="M381.9,386.2s6-1.4,8.9,.8,12.5,1,12.2-4-8.1-18.6-15.8-17.3-23.4,25.9-5.3,20.5h0Z" style="fill:#0c3157; isolation:isolate; opacity:.48;"/><path d="M402.7,348.1c-.3,1.1-.7,2.2-1.2,3.2-.5,1.1-1.2,2-1.9,2.9-.8,.9-1.8,1.6-2.9,2.1-1.2,.5-2.5,.5-3.7,.2-1.2-.4-2.2-1.2-2.9-2.2-.3-.5-.6-1-.9-1.6-.2-.5-.4-1.1-.6-1.7-.5-2.3-.5-4.7,0-6.9,.2-1.1,.6-2.3,1.1-3.3,.5-1.1,1.3-2.1,2.1-2.9,.9-.9,1.9-1.6,3-2,2.5-1,5.3-.2,6.9,1.9,.7,1,1.2,2.1,1.4,3.3,.2,1.2,.3,2.3,.2,3.5-.1,1.3-.3,2.4-.6,3.5h0Zm-.2,0c.6-2.2,.5-4.5-.2-6.7-.3-1-.9-2-1.6-2.8s-1.5-1.4-2.5-1.6-2-.2-3,.2c-1,.4-1.9,.9-2.7,1.7-.8,.7-1.5,1.6-2.1,2.5-.6,1-1.1,2-1.4,3-.8,2.1-.8,4.5-.3,6.7,.3,1.1,.8,2.1,1.6,2.9,.7,.8,1.6,1.4,2.7,1.6,1,.2,2.1,.2,3.1-.2,1-.4,2-.9,2.8-1.6,.9-.7,1.6-1.6,2.2-2.5,.7-1,1.2-2.1,1.4-3.2h0Z" style="fill:#0c3157;"/><path d="M413.2,366.2c-.5,1.1-1,2.1-1.7,3-.7,1-1.4,1.9-2.3,2.6-.9,.8-2,1.4-3.2,1.7-1.2,.3-2.5,.2-3.7-.4-1.1-.6-2-1.5-2.6-2.6-.3-.5-.5-1.1-.6-1.6-.2-.6-.3-1.2-.3-1.8-.2-2.3,.1-4.7,1-6.9,.4-1.1,1-2.2,1.7-3.1,.7-1,1.5-1.9,2.5-2.6,1-.8,2.1-1.3,3.3-1.6,1.3-.3,2.6-.2,3.8,.3,1.2,.5,2.1,1.4,2.8,2.6,.6,1.1,.9,2.3,1,3.5,0,1.2-.1,2.4-.4,3.5-.5,1.2-.8,2.3-1.3,3.4h0Zm-.1,0c.9-2.1,1.2-4.4,.7-6.6-.2-1.1-.6-2.1-1.2-3-.5-.9-1.3-1.5-2.3-1.9-.9-.4-2-.5-2.9-.4-1,.2-2,.7-2.9,1.3-.9,.6-1.7,1.4-2.4,2.2-.7,.9-1.3,1.8-1.8,2.8-1,2-1.5,4.3-1.2,6.6,.1,1.1,.5,2.2,1.2,3.1,.6,.9,1.4,1.6,2.4,1.9,1,.4,2,.5,3.1,.2,1.1-.2,2.1-.6,3-1.2,1-.6,1.8-1.3,2.5-2.2,.7-.9,1.3-1.9,1.8-2.8h0Z" style="fill:#0c3157;"/><path d="M358.4,362.8c.5,1.1,1.1,2,1.8,2.9,.7,.8,1.6,1.6,2.5,2.2s1.9,1,3,1.2c1,.2,2.1,.1,3-.2,1-.4,1.8-1.1,2.4-1.9,.6-.9,1-2,1.2-3.1,.3-2.3-.2-4.6-1.2-6.6-.5-1-1.1-1.9-1.8-2.8-.7-.8-1.5-1.6-2.4-2.2s-1.9-1.1-2.9-1.3c-1-.2-2-.1-2.9,.3s-1.7,1.1-2.3,1.9c-.6,.9-1,2-1.2,3.1-.3,2.2-.1,4.5,.8,6.5h0Zm-.1,0c-.5-1-.8-2.1-1.1-3.2-.3-1.1-.4-2.3-.4-3.5,.1-1.2,.4-2.4,1-3.5s1.6-2,2.8-2.6c1.2-.5,2.5-.6,3.8-.3,1.2,.3,2.3,.8,3.3,1.6,1,.7,1.8,1.6,2.5,2.6s1.2,2,1.7,3.1c.8,2.2,1.2,4.5,1,6.9-.1,.6-.2,1.2-.3,1.7-.2,.6-.4,1.1-.7,1.7-.5,1.1-1.5,2-2.6,2.6-1.2,.5-2.5,.7-3.7,.4-1.2-.3-2.3-.9-3.2-1.7-.9-.8-1.7-1.6-2.3-2.6-.8-1-1.3-2-1.8-3.2h0Z" style="fill:#0c3157;"/><path d="M370.8,348.1c.3,1.1,.8,2.1,1.4,3.1,.6,.9,1.3,1.8,2.2,2.5,.8,.7,1.8,1.3,2.8,1.6,1,.4,2,.4,3.1,.2,1-.3,2-.8,2.7-1.6,.7-.8,1.3-1.8,1.6-2.9,.6-2.2,.5-4.5-.3-6.7-.4-1.1-.8-2.1-1.4-3s-1.2-1.8-2-2.5-1.7-1.3-2.7-1.7c-1-.3-2-.4-3-.2-1,.3-1.9,.8-2.5,1.6-.7,.8-1.2,1.8-1.6,2.8-.8,2.3-.9,4.6-.3,6.8h0Zm-.1,0c-.3-1.1-.5-2.3-.6-3.4-.1-1.2-.1-2.4,.2-3.5,.2-1.2,.7-2.3,1.4-3.3,1.6-2.2,4.4-3,6.9-1.9,1.2,.5,2.2,1.2,3.1,2,.8,.9,1.6,1.8,2.1,2.9,.5,1,.9,2.2,1.2,3.3,.5,2.3,.5,4.7,0,6.9-.1,.6-.3,1.1-.6,1.7-.2,.5-.5,1.1-.9,1.6-.7,1-1.7,1.8-2.9,2.2-1.2,.4-2.5,.3-3.7-.2-1.1-.5-2.1-1.2-2.9-2.1s-1.4-1.9-1.9-2.9c-.7-1-1.1-2.1-1.4-3.3h0Z" style="fill:#0c3157;"/><ellipse cx="396.295" cy="347.986" rx="8.3" ry="5.8" transform="translate(-44.686 637.261) rotate(-74.55)" style="fill:#0c3157; isolation:isolate; opacity:.48;"/><ellipse cx="407.019" cy="364.83" rx="8.3" ry="5.8" transform="translate(-90.234 591.778) rotate(-66.403)" style="fill:#0c3157; isolation:isolate; opacity:.48;"/><ellipse cx="366.401" cy="360.819" rx="5.8" ry="8.3" transform="translate(-113.798 176.838) rotate(-23.597)" style="fill:#0c3157; isolation:isolate; opacity:.48;"/><ellipse cx="378.904" cy="347.207" rx="5.8" ry="8.3" transform="translate(-78.801 113.483) rotate(-15.45)" style="fill:#0c3157; isolation:isolate; opacity:.48;"/></g><g><path d="M66.9,124.3h229.6c3.9,0,7,3.2,7,7v473.2c0,3.9-3.2,7-7,7H66.9c-3.9,0-7-3.2-7-7V131.3c-.1-3.9,3.1-7,7-7Z" style="fill:#010917; stroke:#0c3157; stroke-miterlimit:10;"/><g><path d="M244.5,525.6h0c0,9-7.3,16.3-16.3,16.3h-92.8c-9,0-16.3-7.3-16.3-16.3h0c0-9,7.3-16.3,16.3-16.3h92.8c9,0,16.3,7.3,16.3,16.3Z" style="fill:#fff;"/><path d="M244.4,525.5h0c0,9-7.3,16.3-16.3,16.3h-92.8c-9,0-16.3-7.3-16.3-16.3h0c0-9,7.3-16.3,16.3-16.3h92.7c9.1,0,16.4,7.3,16.4,16.3h0Z" style="fill:#4c95db;"/></g><path d="M270.3,485.35H93.1c-5.86,0-10.45-4.59-10.45-10.45v-13.3c0-5.762,4.688-10.45,10.45-10.45h177.2c5.86,0,10.45,4.59,10.45,10.45v13.3c0,5.86-4.59,10.45-10.45,10.45Zm-177.2-32.7c-4.935,0-8.95,4.015-8.95,8.95v13.3c0,5.019,3.932,8.95,8.95,8.95h177.2c5.019,0,8.95-3.931,8.95-8.95v-13.3c0-5.019-3.931-8.95-8.95-8.95H93.1Z" style="fill:#32679b;"/><circle cx="182.8" cy="249.6" r="55.2" style="fill:#0c3157;"/><circle cx="181.6" cy="248.4" r="55.2" style="fill:#32679b;"/><text transform="translate(207.177 357.804)" style="fill:#67679e; font-family:Nunito-ExtraBold, Nunito; font-size:9.245px; isolation:isolate;"><tspan x="0" y="0"> </tspan></text><path d="M217.3,280.6c-8.8,9.7-21.5,15.9-35.7,15.9s-26.9-6.2-35.7-15.9c9.8-7.7,22.2-12.4,35.7-12.4s25.9,4.7,35.7,12.4Zm-35.6-22.3c11.9,0,21.6-9.7,21.6-21.6s-9.7-21.6-21.6-21.6-21.6,9.7-21.6,21.6,9.6,21.6,21.6,21.6h0Z" style="fill:#001a33;"/><path d="M270.2,430.4H93.1c-5.5,0-10.1-4.5-10.1-10v-13.4c0-5.5,4.5-10,10.1-10v.7c-5.1,0-9.3,4.2-9.3,9.3v13.3c0,5.1,4.2,9.3,9.3,9.3h177.2c5.1,0,9.3-4.2,9.3-9.3v-13.3c0-5.1-4.2-9.3-9.3-9.3h-109.8v-.7h109.7c5.5,0,10,4.5,10,10v13.3c.1,5.6-4.4,10.1-10,10.1h0Z" style="fill:#32679b;"/><path d="M268.2,466.6c-1.7-1.7-3.8-2.6-6-2.6s-4.3,.9-6,2.6c-.9,.9-.9,2.5,0,3.3,1.7,1.7,3.8,2.6,6,2.6s4.3-.9,6-2.6c.9-.8,.9-2.4,0-3.3Zm-6,3.8c-1.2,0-2.2-1-2.2-2.2s1-2.2,2.2-2.2,2.2,1,2.2,2.2-1,2.2-2.2,2.2Zm-5.2-3c1.1-1.1,2.3-1.8,3.6-2.1-1.1,.6-1.8,1.7-1.8,2.9s.7,2.4,1.8,2.9c-1.3-.3-2.6-1-3.6-2.1-.4-.3-.4-1.2,0-1.6h0Zm10.4,1.7c-1.1,1.1-2.3,1.8-3.6,2.1,1.1-.6,1.8-1.7,1.8-2.9s-.7-2.4-1.8-2.9c1.3,.3,2.6,1,3.6,2.1,.4,.3,.4,1.2,0,1.6Z" style="fill:url(#av);"/><g><g><g><g/><g style="clip-path:url(#aw);"><g style="isolation:isolate; opacity:.03;"/></g></g><g><path d="M247.3,137.3h173.8c9.6,0,17.4,7.8,17.4,17.4v16.4c0,9.6-7.8,17.4-17.4,17.4H247.3c-9.6,0-17.4-7.8-17.4-17.4v-16.4c0-9.7,7.8-17.4,17.4-17.4Z" style="fill:#001a33;"/><path d="M245.8,135.8h173.8c9.6,0,17.4,7.8,17.4,17.4v16.4c0,9.6-7.8,17.4-17.4,17.4H245.8c-9.6,0-17.4-7.8-17.4-17.4v-16.4c0-9.7,7.8-17.4,17.4-17.4Z" style="fill:#001a33;"/><path d="M246.5,136.5h173.8c9.6,0,17.4,7.8,17.4,17.4v16.4c0,9.6-7.8,17.4-17.4,17.4H246.5c-9.6,0-17.4-7.8-17.4-17.4v-16.4c.1-9.6,7.8-17.4,17.4-17.4Z" style="fill:#0c3157;"/></g></g><g><path d="M378.8,147.3h29.9c7,0,12.7,5.7,12.7,12.7v4.3c0,7-5.7,12.7-12.7,12.7h-29.9c-7,0-12.7-5.7-12.7-12.7v-4.3c0-7.1,5.7-12.7,12.7-12.7Z" style="fill:#32679b;"/><g><g><g/><g style="clip-path:url(#ay);"><g style="isolation:isolate; opacity:.03;"/></g></g><g><circle cx="381.702" cy="162.895" r="11.9" style="fill:#144b82;"/><circle cx="380.187" cy="161.295" r="11.9" style="fill:#144b82;"/><circle cx="380.994" cy="162.087" r="11.9" style="fill:#4c95db;"/></g></g></g></g></g></g><rect x="104.309" y="336.869" width="156.291" height="9.22" style="fill:#144b82;"/><rect x="89.085" y="355.376" width="187.43" height="4.61" style="fill:#32679b;"/><rect x="89.085" y="365.595" width="187.43" height="4.61" style="fill:#32679b;"/><rect x="942.695" y="497.435" width="112.459" height="4.631" transform="translate(-104.465 326.164) rotate(-17.638)" style="fill:#001a33;"/><rect x="817.002" y="644.715" width="112.459" height="4.631" transform="translate(-154.999 295.003) rotate(-17.638)" style="fill:#001a33;"/><rect x="832.793" y="704.301" width="112.459" height="4.631" transform="translate(-172.311 302.589) rotate(-17.638)" style="fill:#001a33;"/><rect x="1024.218" y="719.707" width="112.459" height="4.631" transform="translate(-167.981 361.314) rotate(-17.638)" style="fill:#001a33;"/><rect x="945.483" y="503.455" width="146.552" height="3.906" transform="translate(-105.247 332.44) rotate(-17.638)" style="fill:#144b82;"/><rect x="947.839" y="510.863" width="146.552" height="3.906" transform="translate(-107.381 333.502) rotate(-17.638)" style="fill:#144b82;"/><rect x="824.984" y="806.469" width="146.552" height="3.906" transform="translate(-202.724 310.173) rotate(-17.638)" style="fill:#144b82;"/><rect x="827.339" y="813.877" width="146.552" height="3.906" transform="translate(-204.858 311.235) rotate(-17.638)" style="fill:#144b82;"/></svg>