<svg xmlns="http://www.w3.org/2000/svg" xmlns:xlink="http://www.w3.org/1999/xlink" viewBox="0 0 722.2 649.9" xmlns:v="https://vecta.io/nano"><style><![CDATA[.X{fill:none}.Y{stroke:#000}.Z{stroke-width:1.4}.a{fill:#fff}.b{stroke-linejoin:round}.c{stroke-miterlimit:10}.d{stroke-linecap:round}.e{fill:#ffcd69}.f{stroke-linejoin:bevel}]]></style><linearGradient id="A" gradientUnits="userSpaceOnUse" x1="542.999" y1="567.708" x2="723.095" y2="567.708"><stop offset="0" stop-color="#8083ff"/><stop offset="1" stop-color="#91aeff"/></linearGradient><path d="M716.1 487.2h-44v89a4.95 4.95 0 0 1-5 5h-170v62a4.95 4.95 0 0 0 5 5h214a4.95 4.95 0 0 0 5-5v-151c0-2.8-2.3-5-5-5z" fill="url(#A)"/><path d="M72.866 540.329c-.9.2-18.8-4.9-39.5-24.8-17.9-17.3-22.2-33.8-24.4-33.7-3.4.1-9 33 10.3 49.6 21.8 18.6 53.6 8.9 53.6 8.9" class="e"/><path d="M118.966 602.229c-14.4 5.1-28 18.6-56.5 11.8-21.7-5.2-35.8-28.6-34.5-31.3.8-1.7 21.2-11 43.7-9.8 35.4 1.9 61.7 28.1 61.7 28.1s-4.5-2.3-14.4 1.2"/><path d="M117.166 595.229c-14.4 5.1-28 18.6-56.5 11.8-21.7-5.2-35.8-28.6-34.5-31.3.8-1.7 21.2-11 43.7-9.8 35.4 1.9 61.7 28.1 61.7 28.1s-4.4-2.3-14.4 1.2z" class="X Y Z c"/><path d="M98.366 530.429c2.9-2.7 13.5-12 20.2-26 6-12.6 2.1-39.8-4-37.9-11.4 3.6-28.7 21.6-33.2 38.3-7.2 26.2 13.2 46 13.2 46s-4.6-12.5 3.8-20.4" fill="#ff7680"/><path d="M19.066 468.629c-5.1-4.8-6.2-12.5-3.5-14.1 6.5-3.9 18.2.8 22.1 10 4 9.6 1.7 17.2 1.7 17.2-1.9-2.3-4.2-4.3-6.7-5.9-3.3-2.1-9-2.8-13.6-7.2"/><path d="M50.766 497.429l1.2 7 2.4 7.6c-.3-1-.5-2.1-.6-3.2-.4-3.4 1.8-9.7 4.2-13.4 8.5-12.7 31.2-26.3 41.8-34.7 24-19.1 35.1-43.2 33.7-51.1-.3-1.8-19.9-5.3-38.4.8-16.6 5.5-31.7 19.8-39.7 39.2-7 17.2-6.1 36.6-4.8 47" fill="#9194ff"/><g class="X Z c"><path d="M51.966 504.429c-.3-1.3-.6-2.6-.7-3.9-.4-3.4 2.1-9.9 4.6-13.6 8.5-12.7 31.2-26.3 41.8-34.7 24-19.1 35.1-43.2 33.7-51.1-.3-1.8-19.9-5.3-38.4.8-16.6 5.5-31.7 19.8-39.7 39.2-10.2 25-3.5 54.7-3.5 54.7l2.2 8.6z" class="Y"/><g class="d"><path d="M50.766 493.729c-.3-10.1 2.1-19.9 5.5-29.8 11.8-34.3 57.1-55 57.1-55" stroke="#fff"/><path d="M54.466 512.329c-2.4-6.1-3.6-10.3-3.8-15.1m98.9 111.1c-2.7-7.5-12-28.1-38.4-44.4-33-20.3-48-30.1-56.4-51" class="Y"/></g><g stroke="#fff"><path d="M31.266 580.429s12.9-3.1 47.8.9c38.4 4.5 68.6 25.1 68.6 25.1"/><path d="M92.566 406.129l-5.1 18.7 24.3-1.1m-36.9-5.9l-1.1 19.2 26.2-.3m-38.6-3.8l1.4 17.2 27.6-.4m-37.9 2.7l2.9 14 13.3-1m-20.1 108l10.6 5.7-17.7 8.9m27.8-15.3l9.7 8.6-25.3 15.5m37.7-20.4l7 8.9-21 15.3" class="d"/></g></g><path d="M189.754 488.4v140.5h7.8V487.2"/><g class="Y Z"><g class="c"><path d="M190.454 488.4l-16 140.5h-8.5l17.7-140.5h6.8z" class="X"/><g class="a"><path d="M125.054 488.4l-16 140.5h-8.5l17.7-140.5h6.8z"/><path d="M177.154 539.3h-58.4l.8-6h58.3l-.7 6zm-6.5 51.6h-58.1l.8-6h58.1l-.8 6z"/></g></g><path d="M97.754 477h119.6v11.4h-119.6z" class="a"/></g><path d="M169.6 166.388c-5.4-15.4-.4-31.2 11.3-35.3s25.5 5 30.9 20.4.4 31.2-11.3 35.3-25.5-5-30.9-20.4" class="a"/><path d="M163.4 254.388s.7 2.1 3.6 4.2c5.5 4 12 4.9 15.9 5 7.9.2 9.6-3.9 9.6-3.9 1.3-2 2.2-4.6 3.1-7.4 1.2-3.5 3-11.7 3-11.7l2.6-2c1.4-1.1-8.9-13.6-9.8-18.6s-.4-8.2 2.2-10.8c1.6-1.7 3.6-3 5.9-3.7.9-.1 1.5-.1 2.4 0-2.1-1.5-4-2.8-6.3-4.1l-3.6-1.4-4.2 2.8-9.9-.4-12.9 25.3 1.3 12.9c.1 2.5-.1 6.3-.8 8.4l-2.1 5.4z" class="Y Z a b c"/><path d="M175.8 126.588c-10.1 0-19.6 5-25.2 13.5-9.8 14.4-13.5 51.2-13.5 51.2s-17.6-6.4-25.3 3.7c-6 8-5 20.6-1 24.3 2.1 2.1 4.5 3.8 7.2 5.1-4 5.1-5.7 11.7-4.6 18.1 1.7 10.8 14 22.8 30.3 20.4 15.2-2.2 18.3-16.9 18.7-20.9.5-4.7-1.1-14.6-1.1-14.6 3.5 1.5 7.6 1.2 10.8-.8 5.6-3.4 12.4-10.8 11.3-24.9s-2.7-18-2.7-18 8.3-3.7 10.6-12.4 3.7-19.8 2.2-29.7-2.4-12-2.4-12 9.7 9 12.3 12.4c1.6 2.3 2.9 4.8 3.7 7.5 0 0 4.9-19.9-11.1-29.8-6-3.7-13.9-2.3-17.7 2.3-1 1.4-1.8 3-2.5 4.6" fill="#ff9882"/><g class="X Y Z c"><path d="M180 128.888c-10.1 0-19.6 5-25.2 13.5-9.8 14.4-13.5 51.2-13.5 51.2s-17.6-6.4-25.3 3.7c-6 8-5 20.6-1 24.3 2.1 2.1 4.5 3.8 7.2 5.1-4 5.1-5.7 11.7-4.6 18.1 1.7 10.8 14 22.8 30.3 20.4 15.2-2.2 18.3-16.9 18.7-20.9.5-4.7-1.1-14.6-1.1-14.6 3.5 1.5 7.6 1.2 10.8-.8 5.6-3.4 12.4-10.8 11.3-24.9s-2.7-18-2.7-18 8.3-3.7 10.6-12.4 3.7-19.8 2.2-29.7-2.4-12-2.4-12 9.7 9 12.3 12.4c1.6 2.3 2.9 4.8 3.7 7.5 0 0 4.9-19.9-11.1-29.8-6-3.7-13.9-2.3-17.7 2.3-1 1.4-1.8 3-2.5 4.6z"/><path d="M211.1 150.988s3.1 7.9 3.1 14.1-1.3 15.2-10.3 20.4c-7.6 4.3-17.8 0-17.8 0"/></g><path d="M207.2 158.188c.6 2.3.5 4.4-.2 4.5s-1.7-1.6-2.3-3.9-.5-4.4.2-4.5 1.7 1.6 2.3 3.9"/><g class="Y Z"><g class="c"><path d="M213 157.188s4.4 2.7 4.4 3.2-3.1 5.8-3.1 5.8c0-1.7-.1-3.4-.4-5.1l-.9-3.9" class="a"/><path d="M213 157.188s4.4 2.7 4.4 3.2-3.1 5.8-3.1 5.8c0-1.7-.1-3.4-.4-5.1l-.9-3.9z" class="X"/><path d="M204.1 207.488c-2.1-2.5-5.9-2.7-8.3-.6l-.3.3c-4.2 3.8-6.2 9-3.7 14.7s18.6 32 20 33.8c.7.8 1.6 1.4 2.5 1.9 8.3 3 35.9 10.1 36.5 11.1.6 1.1 3 7.7 6.8 10.2s9.6 4.2 10.9 4c3-.7 5.8-1.7 8.6-3 1.1-.6 3.4-2.6 3.8-4 .2-.7-.2-1.4-.9-1.6-.1 0-.3-.1-.4 0-1.4.3-8.9 3.3-8.9 3.3s8.3-2.2 10.3-4.2 3.9-4 3.5-5.1-2.2-2.1-2.2-2.1-1.5 1.7-2.4 2.6c-1 1-5.1 2.1-5.1 2.1l7.8-6.8-6.6.1s-1.4.3-2.7.8-2.7-.7-5.3-1.6c-1.3-.5-2.7-.9-4.2-1.1 0 0 3.6-3.1 4.5-2.7s2.3.2 2.9.9c.5.7 2.3 2 3.3 1.5 1-.6 2.1-2.5 1.7-3.5s-5.4-3.3-6.5-3.9-6.3.4-8.1 1.1-6.2 3.7-6.2 3.7l-20-7.7c-7.8-3.1-12-4.6-13.9-6.9s-8.9-20.3-11.7-25.5-5-10.9-5.7-11.8" class="a"/><g class="X"><path d="M204.1 207.488c-2.1-2.5-5.9-2.7-8.3-.6l-.3.3c-4.2 3.8-6.2 9-3.7 14.7s18.6 32 20 33.8c.7.8 1.6 1.4 2.5 1.9 8.3 3 35.9 10.1 36.5 11.1.6 1.1 3 7.7 6.8 10.2s9.6 4.2 10.9 4c3-.7 5.8-1.7 8.6-3 1.1-.6 3.4-2.6 3.8-4 .2-.7-.2-1.4-.9-1.6-.1 0-.3-.1-.4 0-1.4.3-8.9 3.3-8.9 3.3s8.3-2.2 10.3-4.2 3.9-4 3.5-5.1-2.2-2.1-2.2-2.1-1.5 1.7-2.4 2.6c-1 1-5.1 2.1-5.1 2.1l7.8-6.8-6.6.1s-1.4.3-2.7.8-2.7-.7-5.3-1.6c-1.3-.5-2.7-.9-4.2-1.1 0 0 3.6-3.1 4.5-2.7s2.3.2 2.9.9c.5.7 2.3 2 3.3 1.5 1-.6 2.1-2.5 1.7-3.5s-5.4-3.3-6.5-3.9-6.3.4-8.1 1.1-6.2 3.7-6.2 3.7l-20-7.7c-7.8-3.1-12-4.6-13.9-6.9s-8.9-20.3-11.7-25.5-5-10.9-5.7-11.8z"/><path d="M194.8 187.488c-1.2 1.4-1.9 3.2-2.1 5-.3 2.5-.3 5-.2 7.6l7.6 3.8c.7.5 2.8 2 2.8 2.7"/><path d="M187.5 203.088a16.32 16.32 0 0 1 2-1.7 11.69 11.69 0 0 1 3-1.4"/></g><path d="M168.4 359.488l-22.1-.4s.9 7.9.6 10.1c-.4 2.4-5 9.7-8.6 20.6s-11.1 45.2-14.1 49.8c-2.9 4.6-1.8 3.8-4 6.4-1.9 2.3-2.7 3.7-2.4 6-1.8 5.5-4 15.6-4 15.6s1.1 2 2.4 2.2c.8.1 2.7-2.4 4.4-4.8.8 3.8 1.8 7.3 2.8 8.5 2.2 2.5 11.8 2.7 14.6 2.8s2.6-3.2 2.2-4.2-3.2-2.7-4.3-4.9c-1-2.2-1.2-18-.8-20.5.3-2.4 8.3-24.3 12.9-32.1s16.2-36.6 18.4-40.8c1.9-3.4 2-14.3 2-14.3" class="a"/><path d="M168.4 359.488l-22.1-.4s.9 7.9.6 10.1c-.4 2.4-5 9.7-8.6 20.6s-11.1 45.2-14.1 49.8c-2.9 4.6-1.8 3.8-4 6.4-1.9 2.3-2.7 3.7-2.4 6-1.8 5.5-4 15.6-4 15.6s1.1 2 2.4 2.2c.8.1 2.7-2.4 4.4-4.8.8 3.8 1.8 7.3 2.8 8.5 2.2 2.5 11.8 2.7 14.6 2.8s2.6-3.2 2.2-4.2-3.2-2.7-4.3-4.9c-1-2.2-1.2-18-.8-20.5.3-2.4 8.3-24.3 12.9-32.1s16.2-36.6 18.4-40.8c1.9-3.4 2-14.3 2-14.3z" class="X"/><use xlink:href="#C" class="a"/></g><use xlink:href="#C" class="X b"/></g><path d="M154.5 263.388s-12 6.9-17.1 20.4-4 27.1-6.9 36.2c-2.8 9.1-8.6 19.8-11.8 20.9s-2.7 4.7-1.1 5.5 6.7 1.2 10.6 3.1 5 7.5 14.1 9 13.1-1 15.7-1.1 2.7-.5 5.1 1.1 5.1 5.5 12.2 6.3 11.9-3.2 16.4-4.7 7.1-.1 10.3-1.1.3-4.9-1.3-6.5c-1.5-1.7-6.7-13.6-8.3-30.4s-4.6-27.6-6.3-35.2c-.7-4-1.2-8-1.4-12.1 0 0-6.8 2.5-16-1-11.7-4.4-14.1-10.4-14.2-10.4" fill="#9194ff"/><g class="Y Z"><g class="c"><path d="M156.7 264.788s-9 6.2-14.2 19.7-4 27.1-6.9 36.2-8.6 19.8-11.8 20.9-2.7 4.7-1.1 5.5 6.7 1.2 10.6 3.1 5 7.5 14.1 9 13.1-1 15.7-1.1 2.7-.5 5.1 1.1 5.1 5.5 12.2 6.3 11.9-3.2 16.4-4.7 7.1-.1 10.2-1.1.3-4.9-1.3-6.5-6.7-13.6-8.3-30.4-4.6-27.6-6.3-35.2c-1.1-5.3-2.3-13.5-2.3-13.5" class="X"/><path d="M192.6 260.088s-.2 11.7-2.9 13.7-10.6 3.2-18.4.7c-5.2-1.7-9.8-4.7-13.6-8.6-.4-.8-.7-1.6-.8-2.5l3.5-4.8c1-1.2 2.9-4.2 2.9-4.2s.2.5.8 1.3c.4.7.9 1.3 1.5 1.9 3.1 2.5 6.8 4.2 10.6 5.2 5.1 1.2 10.7 1 13.7-.7.8-.4 1.5-1.1 2.1-1.8l.6-.2z"/></g><path d="M213.4 171.888a12.25 12.25 0 0 1-3.8 2.6c-.8.3-1.7.5-2.6.6 0 0 1.9 2.8 4.9 1.9l.3-.7" class="X b d"/></g><path d="M650.624 518.405l-21.4 13.5c-2.9 1.8-11.8 5.9-18.3 6.6s-18.1 2.9-20.7 3.1-7.3.8-7.9 3.8-.1 7.3 1.1 8.2 3.8 1.2 8.4.8l27.1-2.6c6.2-.7 11.2-1.4 15.2-3.6 3.2-1.8 15.8-7.8 20.1-9.8l-1-15.7-2.6-4.3z" class="a"/><path d="M650.524 518.505l-25.5 15.8c-3.5 1.8-10.3 3.2-14.6 4.1-4.4 1-25.3 3.5-27 4.8s-1.5 5.5-1.3 7.2 1.6 4.8 3.7 4.5 40.5-3.2 45-5.2c3.9-1.7 23.5-11.4 23.5-11.4" class="X Y Z b"/><use xlink:href="#D" class="a"/><use xlink:href="#D" class="X Y Z b"/><path d="M475.124 619.605c1.2.9 2.4 1.1 4.4.8 1.4-.2 24.9-.7 40.3-1.2 2.1 1.4 4.6 2.1 7.1 2 1-.7 2-1.4 2.9-2.3 1.4-.1 2.4-.1 2.9-.2 3.6-.3 31.7-4 36.7-3.5 4.3.3 53.5 6.9 69.9 7.2 8.1 2.5 19.9 4.1 24.9 2.5 5.6-1.8 10-5.8 13.8-13.3l-86.9-62c-1.3-.8-2.2-1.4-2.5-1.5-3.2-1.5-9.5-.9-13.9.3-3.3 1-36.2 34.5-51.9 50.6l-8.9 1.8c-11.1 2.1-33.1 4.5-35.4 4.5-2.2 0-5.3-.4-5.4 3 0 3.5.8 10.4 2 11.3m84.4-27.7l19.2-17.7c.1-.1 1.2-1 1.2-1.2l-.2-1.3c.2-.7.3-.7.5 0 .1.8.4 1.6 1 2.2.8.8 7.7 7.4 16.3 15.4-3.1-.1-5.7 0-5.7 0s-10.8 1-21.9 1.3c-3.5.3-6.9.7-10.4 1.3"/><g class="Y Z b"><path d="M473.124 603.405l-6.6-11.9c-2.2-3.9-5.4-11.5-5.4-12.6 0-4-.6-8-4.4-8.3-1-.1-2 2.3-1.6 5s.5 8.7.5 12.8 2.9 12.7 2.9 15.7-1.5 11.3 2.1 13 14-1.7 14-1.7m49.9 2.9c.6 1.5.8 3.2.5 4.8-.6 2.1-11.9 1.3-15.2.6-3.3-.8-14.4.6-18.6 0s-10.1-.4-9.5-1.7.6-4.8 3.4-4.8 22.4-5.9 24.6-6.3a9.33 9.33 0 0 0 3.9-1.5" class="a"/><g class="X"><path d="M677.924 608.905c-3.8 7.5-8.2 11.5-13.8 13.3-6.6 2.2-24.7-1.3-31.1-5-10.7-6.2-50.3-44.2-52.2-46-.5-.6-.9-1.4-1-2.2-.2-.7-.3-.7-.5 0l.2 1.3c0 .2-1.1 1.1-1.2 1.2-3.4 2.8-49.9 46.6-51.8 46.9s-6.6-.6-11-4.9-1.3-8.6-1.3-8.6 55.8-58 60.2-59.2 10.7-1.8 13.9-.3c.3.2 1.2.7 2.5 1.5"/><path d="M635.724 618.505l-64.2-5.8c-3.7-.7-32.1 2.5-42.9 3.7m67.9-30.2l-30.4 1.8c-2.6.2-5.3.7-7.8 1.6m-35.8 6.7l-39.6 6.2c-4.2.4-8.4-.5-9.2.4s-1.5 5.5-.6 9.2c1 3.7 1.7 5.5 3.3 5.5s9.1-.5 9.1-.5"/></g></g><path d="M636.224 537.105l-7.3 7.3c-1.6 1.6-9.3 9.7-9.3 9.7l-13.7-13.5c-3.2-3.2-14.3-14.1-15.3-14.8-.8-.7-1.5-1.5-2.2-2.4 0 0-5.7 2.4-7.1 3.8s-4.1 3.6-1.9 6.6 13.3 14.7 16 17.9c2.6 3.1 18 17.8 19.4 18.3 1.4.6 2 2.6 6.9.3s21.3-11.9 21.3-11.9c.5.8 1.2 1.5 2.1 2 1.3.6 1.9 4.1 1.9 6.3s-2.2 15.1-2.2 16.1c.2 3.1.9 6 2.1 8.9 1.6 3.8 6.2 12.9 13.1 15.4s17.3 2.8 21.6.6 4.5-3.2 4.8-4-.1-14.2-1.5-21.7-4.7-23.3-5.6-25.4-5.5-26.1-10.9-30.1-16-3.6-16-3.6l-5.3 3.9" class="a"/><g class="X Y Z"><path d="M648.624 507.805c.8 3.6 1.3 7.3 1.7 11 0 .6-2.9 7.8-2.9 7.8" class="c"/><g class="b"><path d="M623.624 569.005l21 14.5"/><path d="M680.124 560.105c6.8 26.7 7 43.4 6.2 44.2s-6.6 8.2-23.7 3.8c-16.1-4.1-18.3-24.7-18.3-24.7s3.8-17.5 1.5-21.9c-1.2-.6-2.3-1.3-3.3-2.2"/></g></g><path d="M543.124 484.605c-3.2 12 11 45.6 11 45.6s29.1-22 32.3-33.9c3.2-12-3.9-24.3-15.9-27.5-11.9-3.2-24.2 3.9-27.4 15.8m13.1 3.6c1.3-4.8 6.3-7.7 11.1-6.4s7.7 6.3 6.4 11.1-6.3 7.7-11.1 6.4-7.7-6.3-6.4-11.1" fill="#ff7680"/><use xlink:href="#E" class="a"/><g class="X Y Z b"><use xlink:href="#E"/><path d="M656.824 549.605c-15.1 11.3-36.9 22.9-40 21.7-4.4-1.7-35.4-32.6-37.8-38.1-2.5-5.4 9.5-9.6 9.5-9.6l31.1 30.6s27.2-28.9 35-32.9"/></g><path d="M657.224 505.505c-3.7 1.6-13.4 6.8-22.9.8-9.5-6.1-10.8-19.6-6.6-32s11.9-18.9 16.7-20.7c7.7-3 21.6-5.7 30 10.4 5.4 10.4 5.4 20.7.1 28.4-5.8 8.4-13.5 11.5-17.3 13.1z" class="a"/><path d="M630.124 471.505l3.1-4.6c1.7-2.5 5.6-6.3 5.6-6.3s2.4 9.1 5.4 13.7c1.7 3.5 4.7 8.1 4.7 8.1s-.1.8-1.4 5.4c-1.3 4.7-.7 13.1-.1 17.8s5.6 12.6 6.9 14.1 5 4.9 5 4.9-.2 5.1.8 11 4.4 13.8 8 19.4c3.7 5.6 10 7.5 16.3 9 6.3 1.6 11.3-.6 14.9-3.4 3.6-2.9 3.3-10.1 3.3-10.1s1.2.2 3.9-2.1c2.8-2.4 2.7-8.9 2.7-8.9s-2.9 5.1-5.3 5.2c-2.5.2-3.8-2.3-3.8-4.3-.1-1.9 1.5-3.1 3.5-9.6 1.9-6.5.4-11.1-1.2-15.1s-11-11.2-13.1-13.2c-2.1-1.9-5.4-5.6-5.4-5.6l-.2-3.5s.9-1.1 1.4-2.4.1-9.5-.4-13.7-1.9-10.8-4.1-14.8c-2.1-4-11.9-14.8-24.5-16.3s-20.7 4.5-25 10.6c-4.4 6.2-1 14.7-1 14.7zm23.1 28.1s1.7-9 2.8-10.6c1-1.6 2.1-3.7 4.4-4.2s4.2 1.4 4.6 2.9c.3 1.5.6 7.9-.7 10.6-1.1 2.3-2.8 3.6-4.3 4.5-.3.1.4 2.2.7 5.9s-1.3 11.1-1.3 11.1-4-5.4-5.6-10.1c-1.2-3.4-.6-10.1-.6-10.1z" class="e"/><path d="M659.324 504.405s-12.7 6.7-23.2 1.8c-10.9-5.1-10.9-13.6-10.9-19.9s3.3-14.2 3.3-14.2 1.3-4.2 5-9.3 9.4-9.1 9.4-9.1" class="X Y Z c"/><ellipse transform="matrix(.243 -.97 .97 .243 449.5385 717.3952)" cx="275.3" cy="120.9" rx="4.4" ry="1.3"/><g class="Y Z c"><path d="M626.524 478.305s-4.5 2.7-4.5 3.2 3 5.9 3 5.9 0-3.1.5-5.2l1-3.9z" class="a"/><g class="X"><path d="M686.024 487.305l.8-1.4s-.3-16-2.1-22.3c-2.2-7.4-7.8-14.5-18.3-19.6-12.8-6.2-27-.3-30.8 3.4-1.5 1.5-4.5 6.3-5.2 9.5-.6 3.3.5 9.8.5 9.8s2.3-4 4.6-6.4c2.6-2.7 4.7-4.6 4.7-4.6s3.1 15.7 13.4 25.3c1.2 1.1 2.3 2 3.4 3l.7-1.3s3.3-5 6.7-2.7c3.4 2.2 2.7 10.9 1.1 13.6-1.4 2.4-4 5.1-7.1 4.5-2.9-.6-4-3.9-4-3.9m10.5-31.9s1.2 6.8 3.5 11.8 5.6 8.7 9.1 11.5c3.5 2.7 7.6 2.4 7.6 2.4l.9 4.4s-2.6.3-8.4.1c-2.9-.1-6.4-.8-10.3-2.5"/><path d="M650.324 477.105s-5.3 14.2-.6 26.7 10.7 15.5 10.7 15.5l.7-4.4s-5.3-6.3-6.6-13.2c-1.3-6.8 2.6-17.5 2.6-17.5"/><path d="M661.624 497.505c.1.4.1.7.2 1 1.3 6.3-.1 13.4-1.4 20.7-1.2 7.3 3.2 21.8 8.1 29.5 6.4 10.1 21.4 12.6 28.7 9.4 7.7-3.4 6.7-12.3 6.7-12.3"/><path d="M683.724 492.505s-4.4 11.3 1.1 19.6c6.3 9.4 9.5 13.9 8.1 18.2s-1.6 7.3 1.2 10.9c2.5 3.2 7.8 6.2 12.4 3.6 4.2-2.4 4.2-10.1 4.2-10.1s-2.4 5.7-5.8 5.2c-2.8-.4-4.2-4.1-2-7.9 2.2-3.9 4.6-10.7 2.3-18.3-2.3-7.5-10.8-12.5-13.5-15.4l-5.9-6-2.1.2h0z" class="b"/><path d="M666.324 481.905c4 3.2 6 4.8 9.8 6.4 4.5 1.9 9.3 1.6 9.3 1.6m-31.7-27.2s3.5 11.7 9.3 16.6"/><path d="M685.224 488.405s.3-.7 1.1-.8c.7-.1 1.8.5 2.1 1.9s-.4 2.4-1.2 2.6-1.4.2-1.6-.6-.4-3.1-.4-3.1z"/><path d="M626.024 492.205s1.8 2 3.9 2.6c2 .7 2.6.6 2.6.6s-2.1 2.9-5.1 1.9" class="b d"/><path d="M634.724 468.805s2 0 3.8 1.4c.9.6 1.7 2 1.7 2"/></g></g><path d="M682.797 117.7l-5.5-20.7.9-6.4c.1-2.1-2.6-5.8-2.6-5.8l-.7-.5.1 19.1" fill="#ffd385"/><path d="M682.797 117.7l-5.5-20.7.9-6.4c.1-2.1-2.6-5.8-2.6-5.8l-.7-.5.1 19.1" class="X Y Z f"/><path d="M675.197 111.773s-2.2-7.3-6.5-10.2c-3.1-2.1-10.8-6.2-14.1-2.9s.8 12.8 4.3 15.8c4.1 3.5 7 2.9 8.8 4.3s4.2 4.7 3.3 8.6c-.9 3.8-3.6 8.4-6 7.4-.8-.3-3.2-3.4-3.2-3.4l2.9-6.2-3.6 2.6-1.4-5.7-.6 5.6-3.1-4.9 1.4 5.4-3.7-.4 4.5 4.1c.5 2 1.2 3.9 2.3 5.7 1.5 2.3 4.5 4 6.3 3.6 1.4-.4 2.7-.8 4-1.3l.5 24.8c.3 4-.5 24.8-.5 24.8s12.5-26.1 13.4-45.5c.5-11.5-2.6-22.8-9-32.2" class="e"/><path d="M679.297 111.773s-2.2-7.3-6.5-10.2c-3.1-2.1-10.8-6.2-14.1-2.9s.8 12.8 4.3 15.8c4.1 3.5 7 2.9 8.8 4.3s4.2 4.7 3.3 8.6c-.9 3.8-3.6 8.4-6 7.4-.8-.3-3.2-3.4-3.2-3.4l2.9-6.2-3.6 2.6-1.4-5.7-.6 5.6-3.1-4.9 1.4 5.4-3.7-.4 4.5 4.1c.5 2 1.2 3.9 2.3 5.7 1.5 2.3 4.5 4 6.3 3.6 1.4-.4 2.7-.8 4-1.3l.5 24.8c.3 4-.5 24.6-.5 24.6s12.5-26.1 13.4-45.5c.6-11.3-2.6-22.6-9-32z" class="X Y Z f"/><use xlink:href="#F" fill="#ffd385"/><g class="X Y Z f"><use xlink:href="#F" y="-4.1"/><path d="M658.397 98.473l-6.3-6.6-.2-6.3-.3 6-5.4-1.5"/></g><path d="M665.297 109.2c.9.9 1.3 1.8 1 2.1s-1.2-.2-2.1-1c-.9-.9-1.3-1.8-1-2.1s1.2.2 2.1 1m5.6-5.4c.9.9 1.3 1.8 1 2.1s-1.2-.2-2.1-1c-.9-.9-1.3-1.8-1-2.1.3-.4 1.3.1 2.1 1" fill="#1f253a"/><defs ><path id="C" d="M193.6 362.388s2.3 11 1.8 14.5c-.4 3.3-1.4 6.4-2.9 9.3-1.5 2.7-28.3 66.9-28.8 68.6s.3 8.9 1.2 11.5c1 2.2 2.9 3.8 5.2 4.5 1.1.2 5 1.4 4.8 2.9-.2 1.6.1 2.3-2 2.9s-9.4.4-15.5 0c-5.4-.4-7.8-9.1-7.8-9.1s-.6 9.4-1.4 9.3c-.9-.1-5.7.6-5.6-.3s.6-15.5 1.9-18.5c1.1-2.7 2.5-5.2 4.2-7.5 2.6-3 6.5-6.4 7.9-10.3s11.2-42.8 12.9-49.8 4.5-10 4.8-13.3-1.4-11.5-2.4-14.9"/><path id="D" d="M582.424 543.205l-4.6-5c-1.1-.8-6.2-3.8-6.2-3.8l-3.5 1.2 6.1 1.8s-5.7-2-8.3-1.6c-1.9.4-3.7 1.3-5.1 2.6l8.7 1.7s-8.8-1.7-10.1-1.1c-1.9 1-3 4.1-3 4.1l9.7 1s-9.6-.9-11-.7c-3.1.3-6.2.8-9.3 1.5-2.6.7-4 2.1-2.9 3.6s9 .5 11.9.4c2.1-.1 10.6 2.3 10.6 2.3l1.8 2.1-4.7.7c-1.5.2-3.5-.4-5.4 0-1.4.3-2.8 1.3-2.3 2.6s6.4 2.4 8.1 2.6c4.3-.3 8.7-.9 12.9-1.7 2.6-.9 5.2-1.9 7.7-3.1"/><path id="E" d="M578.624 531.705s-16.9-6.2-18.9-8.1c-1.2-1.2-2-2.8-2.1-4.5l7.9 4c-3.4-2-6.6-2.7-7.2-3.5-.1-.2-.2-.3-.3-.4-.7-.9-1.3-1.3-1.5-1.8-1.1-2.6 1.4-3.1 1.4-3.1l5.5 3.5 4.3 1.9s-1-.5-3.8-1.6c-2.1-.8-7.5-5.1-8.1-5.6l-4.3-3.8c-.7-.7-.8-1.7-.4-2.5.7-1.1 1.7-.9 2.6-.5s8.3 5.9 8.3 5.9l8.3 4.7-8.3-4.8s-3.8-2.4-5.5-3.8c-1.1-.9-1.9-2-2.5-3.3-.7-3.4 3.4-1.4 3.4-1.4l18.1 9.2 4.7-5s.9.7 2 1.8c2 2 6.1 14.8 6.1 14.8"/><path id="F" d="M674.897 209.273s.7 7.4 4.4 11.5c3 3.6 8.2 4.5 12.2 2.1 1.7-.9 4.2-3.6 4.3-6.7.1-2.5-2.4-6.2-2.4-6.2 2.3.4 4.3 2 5.2 4.1 1.7 3.8.1 9.2-3.2 12.1-3.9 3.5-8.8 4.2-14 2.9-3.6-1-6.7-4.2-6.7-4.2l.2-15.6z"/></defs></svg>